export const bodyAndSoulJSON = {
    "header": {
        "keySignatures": [
            {
                "key": "Db",
                "scale": "major",
                "ticks": 0
            }
        ],
        "meta": [],
        "name": "",
        "ppq": 120,
        "tempos": [
            {
                "bpm": 85.00004250002125,
                "ticks": 0
            }
        ],
        "timeSignatures": [
            {
                "ticks": 0,
                "timeSignature": [
                    4,
                    4
                ],
                "measures": 0
            }
        ]
    },
    "tracks": [
        {
            "channel": 0,
            "controlChanges": {
                "0": [
                    {
                        "number": 0,
                        "ticks": 0,
                        "time": 0,
                        "value": 0
                    }
                ],
                "7": [
                    {
                        "number": 7,
                        "ticks": 0,
                        "time": 0,
                        "value": 0.7086614173228346
                    }
                ],
                "10": [
                    {
                        "number": 10,
                        "ticks": 0,
                        "time": 0,
                        "value": 0.5039370078740157
                    }
                ]
            },
            "pitchBends": [],
            "instrument": {
                "family": "bass",
                "number": 32,
                "name": "acoustic bass"
            },
            "name": "Bass    (BB)",
            "notes": [
                {
                    "duration": 1.411764,
                    "durationTicks": 240,
                    "midi": 39,
                    "name": "D#2",
                    "ticks": 0,
                    "time": 0,
                    "velocity": 0.5354330708661418
                },
                {
                    "duration": 1.2352934999999998,
                    "durationTicks": 210,
                    "midi": 34,
                    "name": "A#1",
                    "ticks": 240,
                    "time": 1.411764,
                    "velocity": 0.5118110236220472
                },
                {
                    "duration": 1.4117640000000002,
                    "durationTicks": 240,
                    "midi": 39,
                    "name": "D#2",
                    "ticks": 480,
                    "time": 2.823528,
                    "velocity": 0.5354330708661418
                },
                {
                    "duration": 1.4117639999999998,
                    "durationTicks": 240,
                    "midi": 44,
                    "name": "G#2",
                    "ticks": 720,
                    "time": 4.235292,
                    "velocity": 0.5511811023622047
                },
                {
                    "duration": 1.2352935,
                    "durationTicks": 210,
                    "midi": 37,
                    "name": "C#2",
                    "ticks": 960,
                    "time": 5.647056,
                    "velocity": 0.5118110236220472
                },
                {
                    "duration": 1.4117640000000007,
                    "durationTicks": 240,
                    "midi": 42,
                    "name": "F#2",
                    "ticks": 1200,
                    "time": 7.05882,
                    "velocity": 0.5354330708661418
                },
                {
                    "duration": 1.4117639999999998,
                    "durationTicks": 240,
                    "midi": 41,
                    "name": "F2",
                    "ticks": 1440,
                    "time": 8.470584,
                    "velocity": 0.5354330708661418
                },
                {
                    "duration": 1.4117639999999998,
                    "durationTicks": 240,
                    "midi": 40,
                    "name": "E2",
                    "ticks": 1680,
                    "time": 9.882348,
                    "velocity": 0.5511811023622047
                }
            ],
            "endOfTrackTicks": 1921
        },
        {
            "channel": 9,
            "controlChanges": {
                "0": [
                    {
                        "number": 0,
                        "ticks": 0,
                        "time": 0,
                        "value": 0
                    }
                ],
                "7": [
                    {
                        "number": 7,
                        "ticks": 0,
                        "time": 0,
                        "value": 0.7086614173228346
                    }
                ],
                "10": [
                    {
                        "number": 10,
                        "ticks": 0,
                        "time": 0,
                        "value": 0.5039370078740157
                    }
                ],
                "32": [
                    {
                        "number": 32,
                        "ticks": 0,
                        "time": 0,
                        "value": 0
                    }
                ]
            },
            "pitchBends": [],
            "instrument": {
                "family": "drums",
                "number": 40,
                "name": "brush kit"
            },
            "name": "Drums   (BB)",
            "notes": [
                {
                    "duration": 0.1764705,
                    "durationTicks": 30,
                    "midi": 35,
                    "name": "B1",
                    "ticks": 0,
                    "time": 0,
                    "velocity": 0.4566929133858268
                },
                {
                    "duration": 0.1764705,
                    "durationTicks": 30,
                    "midi": 38,
                    "name": "D2",
                    "ticks": 0,
                    "time": 0,
                    "velocity": 0.3937007874015748
                },
                {
                    "duration": 0.17647050000000003,
                    "durationTicks": 30,
                    "midi": 38,
                    "name": "D2",
                    "ticks": 60,
                    "time": 0.352941,
                    "velocity": 0.2992125984251969
                },
                {
                    "duration": 0.17647049999999997,
                    "durationTicks": 30,
                    "midi": 38,
                    "name": "D2",
                    "ticks": 120,
                    "time": 0.705882,
                    "velocity": 0.4566929133858268
                },
                {
                    "duration": 0.17647049999999997,
                    "durationTicks": 30,
                    "midi": 42,
                    "name": "F#2",
                    "ticks": 120,
                    "time": 0.705882,
                    "velocity": 0.3779527559055118
                },
                {
                    "duration": 0.17647049999999997,
                    "durationTicks": 30,
                    "midi": 38,
                    "name": "D2",
                    "ticks": 180,
                    "time": 1.058823,
                    "velocity": 0.2992125984251969
                },
                {
                    "duration": 0.17647049999999997,
                    "durationTicks": 30,
                    "midi": 35,
                    "name": "B1",
                    "ticks": 240,
                    "time": 1.411764,
                    "velocity": 0.4566929133858268
                },
                {
                    "duration": 0.17647049999999997,
                    "durationTicks": 30,
                    "midi": 38,
                    "name": "D2",
                    "ticks": 240,
                    "time": 1.411764,
                    "velocity": 0.4566929133858268
                },
                {
                    "duration": 0.17647049999999997,
                    "durationTicks": 30,
                    "midi": 38,
                    "name": "D2",
                    "ticks": 300,
                    "time": 1.764705,
                    "velocity": 0.2992125984251969
                },
                {
                    "duration": 0.17647049999999975,
                    "durationTicks": 30,
                    "midi": 38,
                    "name": "D2",
                    "ticks": 360,
                    "time": 2.117646,
                    "velocity": 0.3779527559055118
                },
                {
                    "duration": 0.17647049999999975,
                    "durationTicks": 30,
                    "midi": 42,
                    "name": "F#2",
                    "ticks": 360,
                    "time": 2.117646,
                    "velocity": 0.3779527559055118
                },
                {
                    "duration": 0.17647049999999975,
                    "durationTicks": 30,
                    "midi": 38,
                    "name": "D2",
                    "ticks": 420,
                    "time": 2.470587,
                    "velocity": 0.4566929133858268
                },
                {
                    "duration": 0.1764705000000002,
                    "durationTicks": 30,
                    "midi": 35,
                    "name": "B1",
                    "ticks": 480,
                    "time": 2.823528,
                    "velocity": 0.4566929133858268
                },
                {
                    "duration": 0.1764705000000002,
                    "durationTicks": 30,
                    "midi": 38,
                    "name": "D2",
                    "ticks": 480,
                    "time": 2.823528,
                    "velocity": 0.3937007874015748
                },
                {
                    "duration": 0.1764705000000002,
                    "durationTicks": 30,
                    "midi": 38,
                    "name": "D2",
                    "ticks": 540,
                    "time": 3.176469,
                    "velocity": 0.2992125984251969
                },
                {
                    "duration": 0.1764705000000002,
                    "durationTicks": 30,
                    "midi": 38,
                    "name": "D2",
                    "ticks": 600,
                    "time": 3.52941,
                    "velocity": 0.4566929133858268
                },
                {
                    "duration": 0.1764705000000002,
                    "durationTicks": 30,
                    "midi": 42,
                    "name": "F#2",
                    "ticks": 600,
                    "time": 3.52941,
                    "velocity": 0.3779527559055118
                },
                {
                    "duration": 0.17647049999999975,
                    "durationTicks": 30,
                    "midi": 38,
                    "name": "D2",
                    "ticks": 660,
                    "time": 3.882351,
                    "velocity": 0.2992125984251969
                },
                {
                    "duration": 0.17647049999999975,
                    "durationTicks": 30,
                    "midi": 35,
                    "name": "B1",
                    "ticks": 720,
                    "time": 4.235292,
                    "velocity": 0.4566929133858268
                },
                {
                    "duration": 0.17647049999999975,
                    "durationTicks": 30,
                    "midi": 38,
                    "name": "D2",
                    "ticks": 720,
                    "time": 4.235292,
                    "velocity": 0.4566929133858268
                },
                {
                    "duration": 0.17647050000000064,
                    "durationTicks": 30,
                    "midi": 38,
                    "name": "D2",
                    "ticks": 780,
                    "time": 4.588233,
                    "velocity": 0.2992125984251969
                },
                {
                    "duration": 0.17647049999999975,
                    "durationTicks": 30,
                    "midi": 38,
                    "name": "D2",
                    "ticks": 840,
                    "time": 4.941174,
                    "velocity": 0.3779527559055118
                },
                {
                    "duration": 0.17647049999999975,
                    "durationTicks": 30,
                    "midi": 42,
                    "name": "F#2",
                    "ticks": 840,
                    "time": 4.941174,
                    "velocity": 0.3779527559055118
                },
                {
                    "duration": 0.17647050000000064,
                    "durationTicks": 30,
                    "midi": 38,
                    "name": "D2",
                    "ticks": 900,
                    "time": 5.294115,
                    "velocity": 0.4566929133858268
                },
                {
                    "duration": 0.17647049999999975,
                    "durationTicks": 30,
                    "midi": 35,
                    "name": "B1",
                    "ticks": 960,
                    "time": 5.647056,
                    "velocity": 0.4566929133858268
                },
                {
                    "duration": 0.17647049999999975,
                    "durationTicks": 30,
                    "midi": 38,
                    "name": "D2",
                    "ticks": 960,
                    "time": 5.647056,
                    "velocity": 0.3937007874015748
                },
                {
                    "duration": 0.17647049999999975,
                    "durationTicks": 30,
                    "midi": 38,
                    "name": "D2",
                    "ticks": 1020,
                    "time": 5.9999970000000005,
                    "velocity": 0.2992125984251969
                },
                {
                    "duration": 0.17647049999999975,
                    "durationTicks": 30,
                    "midi": 38,
                    "name": "D2",
                    "ticks": 1080,
                    "time": 6.352938,
                    "velocity": 0.4566929133858268
                },
                {
                    "duration": 0.17647049999999975,
                    "durationTicks": 30,
                    "midi": 42,
                    "name": "F#2",
                    "ticks": 1080,
                    "time": 6.352938,
                    "velocity": 0.3779527559055118
                },
                {
                    "duration": 0.17647049999999975,
                    "durationTicks": 30,
                    "midi": 38,
                    "name": "D2",
                    "ticks": 1140,
                    "time": 6.705879,
                    "velocity": 0.2992125984251969
                },
                {
                    "duration": 0.17647050000000064,
                    "durationTicks": 30,
                    "midi": 35,
                    "name": "B1",
                    "ticks": 1200,
                    "time": 7.05882,
                    "velocity": 0.4566929133858268
                },
                {
                    "duration": 0.17647050000000064,
                    "durationTicks": 30,
                    "midi": 38,
                    "name": "D2",
                    "ticks": 1200,
                    "time": 7.05882,
                    "velocity": 0.4566929133858268
                },
                {
                    "duration": 0.17647049999999975,
                    "durationTicks": 30,
                    "midi": 38,
                    "name": "D2",
                    "ticks": 1260,
                    "time": 7.411761,
                    "velocity": 0.2992125984251969
                },
                {
                    "duration": 0.17647050000000064,
                    "durationTicks": 30,
                    "midi": 38,
                    "name": "D2",
                    "ticks": 1320,
                    "time": 7.764702,
                    "velocity": 0.3779527559055118
                },
                {
                    "duration": 0.17647050000000064,
                    "durationTicks": 30,
                    "midi": 42,
                    "name": "F#2",
                    "ticks": 1320,
                    "time": 7.764702,
                    "velocity": 0.3779527559055118
                },
                {
                    "duration": 0.17647050000000064,
                    "durationTicks": 30,
                    "midi": 38,
                    "name": "D2",
                    "ticks": 1380,
                    "time": 8.117643,
                    "velocity": 0.4566929133858268
                },
                {
                    "duration": 0.17647049999999886,
                    "durationTicks": 30,
                    "midi": 35,
                    "name": "B1",
                    "ticks": 1440,
                    "time": 8.470584,
                    "velocity": 0.4566929133858268
                },
                {
                    "duration": 0.17647049999999886,
                    "durationTicks": 30,
                    "midi": 38,
                    "name": "D2",
                    "ticks": 1440,
                    "time": 8.470584,
                    "velocity": 0.3937007874015748
                },
                {
                    "duration": 0.17647050000000064,
                    "durationTicks": 30,
                    "midi": 38,
                    "name": "D2",
                    "ticks": 1500,
                    "time": 8.823525,
                    "velocity": 0.2992125984251969
                },
                {
                    "duration": 0.17647050000000064,
                    "durationTicks": 30,
                    "midi": 38,
                    "name": "D2",
                    "ticks": 1560,
                    "time": 9.176466,
                    "velocity": 0.4566929133858268
                },
                {
                    "duration": 0.17647050000000064,
                    "durationTicks": 30,
                    "midi": 42,
                    "name": "F#2",
                    "ticks": 1560,
                    "time": 9.176466,
                    "velocity": 0.3779527559055118
                },
                {
                    "duration": 0.17647049999999886,
                    "durationTicks": 30,
                    "midi": 38,
                    "name": "D2",
                    "ticks": 1620,
                    "time": 9.529407,
                    "velocity": 0.2992125984251969
                },
                {
                    "duration": 0.17647050000000064,
                    "durationTicks": 30,
                    "midi": 35,
                    "name": "B1",
                    "ticks": 1680,
                    "time": 9.882348,
                    "velocity": 0.4566929133858268
                },
                {
                    "duration": 0.17647050000000064,
                    "durationTicks": 30,
                    "midi": 38,
                    "name": "D2",
                    "ticks": 1680,
                    "time": 9.882348,
                    "velocity": 0.4566929133858268
                },
                {
                    "duration": 0.17647050000000064,
                    "durationTicks": 30,
                    "midi": 38,
                    "name": "D2",
                    "ticks": 1740,
                    "time": 10.235289,
                    "velocity": 0.2992125984251969
                },
                {
                    "duration": 0.17647050000000064,
                    "durationTicks": 30,
                    "midi": 38,
                    "name": "D2",
                    "ticks": 1800,
                    "time": 10.58823,
                    "velocity": 0.3779527559055118
                },
                {
                    "duration": 0.17647050000000064,
                    "durationTicks": 30,
                    "midi": 42,
                    "name": "F#2",
                    "ticks": 1800,
                    "time": 10.58823,
                    "velocity": 0.3779527559055118
                },
                {
                    "duration": 0.17647049999999886,
                    "durationTicks": 30,
                    "midi": 38,
                    "name": "D2",
                    "ticks": 1860,
                    "time": 10.941171,
                    "velocity": 0.4566929133858268
                }
            ],
            "endOfTrackTicks": 1891
        },
        {
            "channel": 2,
            "controlChanges": {
                "0": [
                    {
                        "number": 0,
                        "ticks": 0,
                        "time": 0,
                        "value": 0
                    },
                    {
                        "number": 0,
                        "ticks": 450,
                        "time": 2.6470575,
                        "value": 0
                    },
                    {
                        "number": 0,
                        "ticks": 480,
                        "time": 2.823528,
                        "value": 0
                    },
                    {
                        "number": 0,
                        "ticks": 1650,
                        "time": 9.7058775,
                        "value": 0
                    },
                    {
                        "number": 0,
                        "ticks": 1680,
                        "time": 9.882348,
                        "value": 0
                    },
                    {
                        "number": 0,
                        "ticks": 2400,
                        "time": 14.11764,
                        "value": 0
                    },
                    {
                        "number": 0,
                        "ticks": 3000,
                        "time": 17.64705,
                        "value": 0
                    },
                    {
                        "number": 0,
                        "ticks": 5040,
                        "time": 29.647044,
                        "value": 0
                    },
                    {
                        "number": 0,
                        "ticks": 6720,
                        "time": 39.529392,
                        "value": 0
                    },
                    {
                        "number": 0,
                        "ticks": 7595,
                        "time": 44.67644825,
                        "value": 0
                    },
                    {
                        "number": 0,
                        "ticks": 7635,
                        "time": 44.91174225,
                        "value": 0
                    },
                    {
                        "number": 0,
                        "ticks": 9420,
                        "time": 55.411737,
                        "value": 0
                    },
                    {
                        "number": 0,
                        "ticks": 9540,
                        "time": 56.117619,
                        "value": 0
                    },
                    {
                        "number": 0,
                        "ticks": 9600,
                        "time": 56.47056,
                        "value": 0
                    },
                    {
                        "number": 0,
                        "ticks": 10290,
                        "time": 60.5293815,
                        "value": 0
                    },
                    {
                        "number": 0,
                        "ticks": 10320,
                        "time": 60.705852,
                        "value": 0
                    },
                    {
                        "number": 0,
                        "ticks": 12000,
                        "time": 70.5882,
                        "value": 0
                    },
                    {
                        "number": 0,
                        "ticks": 12480,
                        "time": 73.411728,
                        "value": 0
                    },
                    {
                        "number": 0,
                        "ticks": 12960,
                        "time": 76.235256,
                        "value": 0
                    },
                    {
                        "number": 0,
                        "ticks": 13410,
                        "time": 78.8823135,
                        "value": 0
                    },
                    {
                        "number": 0,
                        "ticks": 13440,
                        "time": 79.058784,
                        "value": 0
                    },
                    {
                        "number": 0,
                        "ticks": 16560,
                        "time": 97.411716,
                        "value": 0
                    },
                    {
                        "number": 0,
                        "ticks": 16770,
                        "time": 98.6470095,
                        "value": 0
                    },
                    {
                        "number": 0,
                        "ticks": 16800,
                        "time": 98.82348,
                        "value": 0
                    },
                    {
                        "number": 0,
                        "ticks": 17250,
                        "time": 101.4705375,
                        "value": 0
                    },
                    {
                        "number": 0,
                        "ticks": 17280,
                        "time": 101.647008,
                        "value": 0
                    },
                    {
                        "number": 0,
                        "ticks": 17520,
                        "time": 103.058772,
                        "value": 0
                    },
                    {
                        "number": 0,
                        "ticks": 18915,
                        "time": 111.26465025,
                        "value": 0
                    },
                    {
                        "number": 0,
                        "ticks": 19635,
                        "time": 115.49994225,
                        "value": 0
                    },
                    {
                        "number": 0,
                        "ticks": 19920,
                        "time": 117.176412,
                        "value": 0
                    },
                    {
                        "number": 0,
                        "ticks": 20370,
                        "time": 119.8234695,
                        "value": 0
                    },
                    {
                        "number": 0,
                        "ticks": 20400,
                        "time": 119.99994,
                        "value": 0
                    },
                    {
                        "number": 0,
                        "ticks": 20850,
                        "time": 122.6469975,
                        "value": 0
                    },
                    {
                        "number": 0,
                        "ticks": 20880,
                        "time": 122.823468,
                        "value": 0
                    },
                    {
                        "number": 0,
                        "ticks": 21090,
                        "time": 124.0587615,
                        "value": 0
                    },
                    {
                        "number": 0,
                        "ticks": 21120,
                        "time": 124.235232,
                        "value": 0
                    },
                    {
                        "number": 0,
                        "ticks": 21360,
                        "time": 125.646996,
                        "value": 0
                    },
                    {
                        "number": 0,
                        "ticks": 21600,
                        "time": 127.05876,
                        "value": 0
                    },
                    {
                        "number": 0,
                        "ticks": 21840,
                        "time": 128.470524,
                        "value": 0
                    },
                    {
                        "number": 0,
                        "ticks": 23010,
                        "time": 135.35287350000002,
                        "value": 0
                    },
                    {
                        "number": 0,
                        "ticks": 23040,
                        "time": 135.529344,
                        "value": 0
                    },
                    {
                        "number": 0,
                        "ticks": 25170,
                        "time": 148.0587495,
                        "value": 0
                    },
                    {
                        "number": 0,
                        "ticks": 25200,
                        "time": 148.23522,
                        "value": 0
                    },
                    {
                        "number": 0,
                        "ticks": 25595,
                        "time": 150.55874825,
                        "value": 0
                    },
                    {
                        "number": 0,
                        "ticks": 25635,
                        "time": 150.79404225,
                        "value": 0
                    },
                    {
                        "number": 0,
                        "ticks": 25920,
                        "time": 152.470512,
                        "value": 0
                    },
                    {
                        "number": 0,
                        "ticks": 26130,
                        "time": 153.7058055,
                        "value": 0
                    },
                    {
                        "number": 0,
                        "ticks": 26160,
                        "time": 153.882276,
                        "value": 0
                    },
                    {
                        "number": 0,
                        "ticks": 27120,
                        "time": 159.529332,
                        "value": 0
                    },
                    {
                        "number": 0,
                        "ticks": 27360,
                        "time": 160.94109600000002,
                        "value": 0
                    },
                    {
                        "number": 0,
                        "ticks": 30960,
                        "time": 182.117556,
                        "value": 0
                    },
                    {
                        "number": 0,
                        "ticks": 31920,
                        "time": 187.764612,
                        "value": 0
                    },
                    {
                        "number": 0,
                        "ticks": 32075,
                        "time": 188.67637625,
                        "value": 0
                    },
                    {
                        "number": 0,
                        "ticks": 32115,
                        "time": 188.91167025000001,
                        "value": 0
                    },
                    {
                        "number": 0,
                        "ticks": 32850,
                        "time": 193.2351975,
                        "value": 0
                    },
                    {
                        "number": 0,
                        "ticks": 32880,
                        "time": 193.411668,
                        "value": 0
                    },
                    {
                        "number": 0,
                        "ticks": 33330,
                        "time": 196.0587255,
                        "value": 0
                    },
                    {
                        "number": 0,
                        "ticks": 33360,
                        "time": 196.235196,
                        "value": 0
                    },
                    {
                        "number": 0,
                        "ticks": 35970,
                        "time": 211.5881295,
                        "value": 0
                    },
                    {
                        "number": 0,
                        "ticks": 36000,
                        "time": 211.7646,
                        "value": 0
                    },
                    {
                        "number": 0,
                        "ticks": 37170,
                        "time": 218.6469495,
                        "value": 0
                    },
                    {
                        "number": 0,
                        "ticks": 37200,
                        "time": 218.82342,
                        "value": 0
                    },
                    {
                        "number": 0,
                        "ticks": 39720,
                        "time": 233.646942,
                        "value": 0
                    },
                    {
                        "number": 0,
                        "ticks": 41195,
                        "time": 242.32340825000003,
                        "value": 0
                    },
                    {
                        "number": 0,
                        "ticks": 41235,
                        "time": 242.55870225,
                        "value": 0
                    },
                    {
                        "number": 0,
                        "ticks": 42930,
                        "time": 252.52928550000001,
                        "value": 0
                    },
                    {
                        "number": 0,
                        "ticks": 42960,
                        "time": 252.705756,
                        "value": 0
                    },
                    {
                        "number": 0,
                        "ticks": 43650,
                        "time": 256.76457750000003,
                        "value": 0
                    },
                    {
                        "number": 0,
                        "ticks": 43680,
                        "time": 256.941048,
                        "value": 0
                    },
                    {
                        "number": 0,
                        "ticks": 43890,
                        "time": 258.1763415,
                        "value": 0
                    },
                    {
                        "number": 0,
                        "ticks": 43920,
                        "time": 258.35281200000003,
                        "value": 0
                    },
                    {
                        "number": 0,
                        "ticks": 45090,
                        "time": 265.2351615,
                        "value": 0
                    },
                    {
                        "number": 0,
                        "ticks": 45120,
                        "time": 265.411632,
                        "value": 0
                    },
                    {
                        "number": 0,
                        "ticks": 45240,
                        "time": 266.117514,
                        "value": 0
                    },
                    {
                        "number": 0,
                        "ticks": 45555,
                        "time": 267.97045425,
                        "value": 0
                    },
                    {
                        "number": 0,
                        "ticks": 45900,
                        "time": 269.999865,
                        "value": 0
                    },
                    {
                        "number": 0,
                        "ticks": 46020,
                        "time": 270.70574700000003,
                        "value": 0
                    },
                    {
                        "number": 0,
                        "ticks": 46080,
                        "time": 271.058688,
                        "value": 0
                    }
                ],
                "7": [
                    {
                        "number": 7,
                        "ticks": 0,
                        "time": 0,
                        "value": 0.7086614173228346
                    }
                ],
                "10": [
                    {
                        "number": 10,
                        "ticks": 0,
                        "time": 0,
                        "value": 0.5039370078740157
                    }
                ],
                "64": [
                    {
                        "number": 64,
                        "ticks": 0,
                        "time": 0,
                        "value": 1
                    },
                    {
                        "number": 64,
                        "ticks": 0,
                        "time": 0,
                        "value": 0
                    },
                    {
                        "number": 64,
                        "ticks": 180,
                        "time": 1.058823,
                        "value": 1
                    },
                    {
                        "number": 64,
                        "ticks": 240,
                        "time": 1.411764,
                        "value": 0
                    },
                    {
                        "number": 64,
                        "ticks": 330,
                        "time": 1.9411755,
                        "value": 1
                    },
                    {
                        "number": 64,
                        "ticks": 480,
                        "time": 2.823528,
                        "value": 0
                    },
                    {
                        "number": 64,
                        "ticks": 720,
                        "time": 4.235292,
                        "value": 1
                    },
                    {
                        "number": 64,
                        "ticks": 720,
                        "time": 4.235292,
                        "value": 0
                    },
                    {
                        "number": 64,
                        "ticks": 900,
                        "time": 5.294115,
                        "value": 1
                    },
                    {
                        "number": 64,
                        "ticks": 960,
                        "time": 5.647056,
                        "value": 0
                    },
                    {
                        "number": 64,
                        "ticks": 1080,
                        "time": 6.352938,
                        "value": 1
                    },
                    {
                        "number": 64,
                        "ticks": 1200,
                        "time": 7.05882,
                        "value": 0
                    },
                    {
                        "number": 64,
                        "ticks": 1530,
                        "time": 8.9999955,
                        "value": 1
                    },
                    {
                        "number": 64,
                        "ticks": 1680,
                        "time": 9.882348,
                        "value": 0
                    },
                    {
                        "number": 64,
                        "ticks": 1800,
                        "time": 10.58823,
                        "value": 1
                    },
                    {
                        "number": 64,
                        "ticks": 1920,
                        "time": 11.294112,
                        "value": 0
                    },
                    {
                        "number": 64,
                        "ticks": 2340,
                        "time": 13.764699,
                        "value": 1
                    },
                    {
                        "number": 64,
                        "ticks": 2400,
                        "time": 14.11764,
                        "value": 0
                    },
                    {
                        "number": 64,
                        "ticks": 2520,
                        "time": 14.823522,
                        "value": 1
                    },
                    {
                        "number": 64,
                        "ticks": 2595,
                        "time": 15.26469825,
                        "value": 0
                    },
                    {
                        "number": 64,
                        "ticks": 2760,
                        "time": 16.235286,
                        "value": 1
                    },
                    {
                        "number": 64,
                        "ticks": 2880,
                        "time": 16.941168,
                        "value": 0
                    },
                    {
                        "number": 64,
                        "ticks": 2970,
                        "time": 17.4705795,
                        "value": 1
                    },
                    {
                        "number": 64,
                        "ticks": 3000,
                        "time": 17.64705,
                        "value": 0
                    },
                    {
                        "number": 64,
                        "ticks": 3120,
                        "time": 18.352932,
                        "value": 0
                    },
                    {
                        "number": 64,
                        "ticks": 3120,
                        "time": 18.352932,
                        "value": 0
                    },
                    {
                        "number": 64,
                        "ticks": 3720,
                        "time": 21.882342,
                        "value": 1
                    },
                    {
                        "number": 64,
                        "ticks": 3840,
                        "time": 22.588224,
                        "value": 0
                    },
                    {
                        "number": 64,
                        "ticks": 4200,
                        "time": 24.70587,
                        "value": 1
                    },
                    {
                        "number": 64,
                        "ticks": 4320,
                        "time": 25.411752,
                        "value": 0
                    },
                    {
                        "number": 64,
                        "ticks": 4320,
                        "time": 25.411752,
                        "value": 1
                    },
                    {
                        "number": 64,
                        "ticks": 4320,
                        "time": 25.411752,
                        "value": 0
                    },
                    {
                        "number": 64,
                        "ticks": 4475,
                        "time": 26.323516249999997,
                        "value": 1
                    },
                    {
                        "number": 64,
                        "ticks": 4515,
                        "time": 26.55881025,
                        "value": 0
                    },
                    {
                        "number": 64,
                        "ticks": 4980,
                        "time": 29.294103,
                        "value": 1
                    },
                    {
                        "number": 64,
                        "ticks": 5040,
                        "time": 29.647044,
                        "value": 0
                    },
                    {
                        "number": 64,
                        "ticks": 5040,
                        "time": 29.647044,
                        "value": 1
                    },
                    {
                        "number": 64,
                        "ticks": 5040,
                        "time": 29.647044,
                        "value": 0
                    },
                    {
                        "number": 64,
                        "ticks": 5220,
                        "time": 30.705867,
                        "value": 1
                    },
                    {
                        "number": 64,
                        "ticks": 5280,
                        "time": 31.058808,
                        "value": 0
                    },
                    {
                        "number": 64,
                        "ticks": 5280,
                        "time": 31.058808,
                        "value": 1
                    },
                    {
                        "number": 64,
                        "ticks": 5280,
                        "time": 31.058808,
                        "value": 0
                    },
                    {
                        "number": 64,
                        "ticks": 5435,
                        "time": 31.97057225,
                        "value": 1
                    },
                    {
                        "number": 64,
                        "ticks": 5475,
                        "time": 32.20586625,
                        "value": 0
                    },
                    {
                        "number": 64,
                        "ticks": 5640,
                        "time": 33.176454,
                        "value": 1
                    },
                    {
                        "number": 64,
                        "ticks": 5760,
                        "time": 33.882336,
                        "value": 0
                    },
                    {
                        "number": 64,
                        "ticks": 6120,
                        "time": 35.999982,
                        "value": 1
                    },
                    {
                        "number": 64,
                        "ticks": 6240,
                        "time": 36.705864,
                        "value": 0
                    },
                    {
                        "number": 64,
                        "ticks": 6240,
                        "time": 36.705864,
                        "value": 1
                    },
                    {
                        "number": 64,
                        "ticks": 6240,
                        "time": 36.705864,
                        "value": 0
                    },
                    {
                        "number": 64,
                        "ticks": 6395,
                        "time": 37.617628249999996,
                        "value": 1
                    },
                    {
                        "number": 64,
                        "ticks": 6435,
                        "time": 37.85292225,
                        "value": 0
                    },
                    {
                        "number": 64,
                        "ticks": 6660,
                        "time": 39.176451,
                        "value": 1
                    },
                    {
                        "number": 64,
                        "ticks": 6720,
                        "time": 39.529392,
                        "value": 0
                    },
                    {
                        "number": 64,
                        "ticks": 7200,
                        "time": 42.35292,
                        "value": 0
                    },
                    {
                        "number": 64,
                        "ticks": 7200,
                        "time": 42.35292,
                        "value": 0
                    },
                    {
                        "number": 64,
                        "ticks": 7530,
                        "time": 44.2940955,
                        "value": 1
                    },
                    {
                        "number": 64,
                        "ticks": 7635,
                        "time": 44.91174225,
                        "value": 0
                    },
                    {
                        "number": 64,
                        "ticks": 8280,
                        "time": 48.705858,
                        "value": 1
                    },
                    {
                        "number": 64,
                        "ticks": 8400,
                        "time": 49.41174,
                        "value": 0
                    },
                    {
                        "number": 64,
                        "ticks": 8880,
                        "time": 52.235268,
                        "value": 1
                    },
                    {
                        "number": 64,
                        "ticks": 8880,
                        "time": 52.235268,
                        "value": 0
                    },
                    {
                        "number": 64,
                        "ticks": 9075,
                        "time": 53.38232625,
                        "value": 0
                    },
                    {
                        "number": 64,
                        "ticks": 9075,
                        "time": 53.38232625,
                        "value": 0
                    },
                    {
                        "number": 64,
                        "ticks": 9300,
                        "time": 54.705855,
                        "value": 1
                    },
                    {
                        "number": 64,
                        "ticks": 9600,
                        "time": 56.47056,
                        "value": 0
                    },
                    {
                        "number": 64,
                        "ticks": 9720,
                        "time": 57.176442,
                        "value": 1
                    },
                    {
                        "number": 64,
                        "ticks": 9840,
                        "time": 57.882324000000004,
                        "value": 0
                    },
                    {
                        "number": 64,
                        "ticks": 10170,
                        "time": 59.823499500000004,
                        "value": 1
                    },
                    {
                        "number": 64,
                        "ticks": 10320,
                        "time": 60.705852,
                        "value": 0
                    },
                    {
                        "number": 64,
                        "ticks": 10680,
                        "time": 62.823498,
                        "value": 1
                    },
                    {
                        "number": 64,
                        "ticks": 10800,
                        "time": 63.52938,
                        "value": 0
                    },
                    {
                        "number": 64,
                        "ticks": 11400,
                        "time": 67.05879,
                        "value": 1
                    },
                    {
                        "number": 64,
                        "ticks": 11520,
                        "time": 67.764672,
                        "value": 0
                    },
                    {
                        "number": 64,
                        "ticks": 11520,
                        "time": 67.764672,
                        "value": 1
                    },
                    {
                        "number": 64,
                        "ticks": 11520,
                        "time": 67.764672,
                        "value": 0
                    },
                    {
                        "number": 64,
                        "ticks": 11700,
                        "time": 68.823495,
                        "value": 1
                    },
                    {
                        "number": 64,
                        "ticks": 11760,
                        "time": 69.176436,
                        "value": 0
                    },
                    {
                        "number": 64,
                        "ticks": 11940,
                        "time": 70.235259,
                        "value": 1
                    },
                    {
                        "number": 64,
                        "ticks": 12000,
                        "time": 70.5882,
                        "value": 0
                    },
                    {
                        "number": 64,
                        "ticks": 12420,
                        "time": 73.058787,
                        "value": 1
                    },
                    {
                        "number": 64,
                        "ticks": 12480,
                        "time": 73.411728,
                        "value": 0
                    },
                    {
                        "number": 64,
                        "ticks": 12480,
                        "time": 73.411728,
                        "value": 1
                    },
                    {
                        "number": 64,
                        "ticks": 12480,
                        "time": 73.411728,
                        "value": 0
                    },
                    {
                        "number": 64,
                        "ticks": 12660,
                        "time": 74.470551,
                        "value": 1
                    },
                    {
                        "number": 64,
                        "ticks": 12720,
                        "time": 74.823492,
                        "value": 0
                    },
                    {
                        "number": 64,
                        "ticks": 12900,
                        "time": 75.882315,
                        "value": 1
                    },
                    {
                        "number": 64,
                        "ticks": 12960,
                        "time": 76.235256,
                        "value": 0
                    },
                    {
                        "number": 64,
                        "ticks": 12960,
                        "time": 76.235256,
                        "value": 1
                    },
                    {
                        "number": 64,
                        "ticks": 12960,
                        "time": 76.235256,
                        "value": 0
                    },
                    {
                        "number": 64,
                        "ticks": 13140,
                        "time": 77.294079,
                        "value": 1
                    },
                    {
                        "number": 64,
                        "ticks": 13200,
                        "time": 77.64702,
                        "value": 0
                    },
                    {
                        "number": 64,
                        "ticks": 13290,
                        "time": 78.1764315,
                        "value": 1
                    },
                    {
                        "number": 64,
                        "ticks": 13440,
                        "time": 79.058784,
                        "value": 0
                    },
                    {
                        "number": 64,
                        "ticks": 13920,
                        "time": 81.882312,
                        "value": 1
                    },
                    {
                        "number": 64,
                        "ticks": 13920,
                        "time": 81.882312,
                        "value": 0
                    },
                    {
                        "number": 64,
                        "ticks": 14075,
                        "time": 82.79407625,
                        "value": 1
                    },
                    {
                        "number": 64,
                        "ticks": 14115,
                        "time": 83.02937025,
                        "value": 0
                    },
                    {
                        "number": 64,
                        "ticks": 14475,
                        "time": 85.14701625000001,
                        "value": 0
                    },
                    {
                        "number": 64,
                        "ticks": 14475,
                        "time": 85.14701625000001,
                        "value": 0
                    },
                    {
                        "number": 64,
                        "ticks": 15360,
                        "time": 90.352896,
                        "value": 1
                    },
                    {
                        "number": 64,
                        "ticks": 15360,
                        "time": 90.352896,
                        "value": 0
                    },
                    {
                        "number": 64,
                        "ticks": 15540,
                        "time": 91.411719,
                        "value": 1
                    },
                    {
                        "number": 64,
                        "ticks": 15600,
                        "time": 91.76466,
                        "value": 0
                    },
                    {
                        "number": 64,
                        "ticks": 15600,
                        "time": 91.76466,
                        "value": 1
                    },
                    {
                        "number": 64,
                        "ticks": 15600,
                        "time": 91.76466,
                        "value": 0
                    },
                    {
                        "number": 64,
                        "ticks": 15780,
                        "time": 92.823483,
                        "value": 1
                    },
                    {
                        "number": 64,
                        "ticks": 15840,
                        "time": 93.176424,
                        "value": 0
                    },
                    {
                        "number": 64,
                        "ticks": 16080,
                        "time": 94.588188,
                        "value": 1
                    },
                    {
                        "number": 64,
                        "ticks": 16080,
                        "time": 94.588188,
                        "value": 0
                    },
                    {
                        "number": 64,
                        "ticks": 16260,
                        "time": 95.647011,
                        "value": 1
                    },
                    {
                        "number": 64,
                        "ticks": 16320,
                        "time": 95.99995200000001,
                        "value": 0
                    },
                    {
                        "number": 64,
                        "ticks": 16500,
                        "time": 97.058775,
                        "value": 1
                    },
                    {
                        "number": 64,
                        "ticks": 16560,
                        "time": 97.411716,
                        "value": 0
                    },
                    {
                        "number": 64,
                        "ticks": 16650,
                        "time": 97.94112750000001,
                        "value": 1
                    },
                    {
                        "number": 64,
                        "ticks": 16800,
                        "time": 98.82348,
                        "value": 0
                    },
                    {
                        "number": 64,
                        "ticks": 17130,
                        "time": 100.7646555,
                        "value": 1
                    },
                    {
                        "number": 64,
                        "ticks": 17280,
                        "time": 101.647008,
                        "value": 0
                    },
                    {
                        "number": 64,
                        "ticks": 17460,
                        "time": 102.705831,
                        "value": 1
                    },
                    {
                        "number": 64,
                        "ticks": 17520,
                        "time": 103.058772,
                        "value": 0
                    },
                    {
                        "number": 64,
                        "ticks": 17760,
                        "time": 104.470536,
                        "value": 1
                    },
                    {
                        "number": 64,
                        "ticks": 17760,
                        "time": 104.470536,
                        "value": 0
                    },
                    {
                        "number": 64,
                        "ticks": 17940,
                        "time": 105.529359,
                        "value": 1
                    },
                    {
                        "number": 64,
                        "ticks": 18000,
                        "time": 105.8823,
                        "value": 0
                    },
                    {
                        "number": 64,
                        "ticks": 18360,
                        "time": 107.99994600000001,
                        "value": 0
                    },
                    {
                        "number": 64,
                        "ticks": 18360,
                        "time": 107.99994600000001,
                        "value": 0
                    },
                    {
                        "number": 64,
                        "ticks": 18435,
                        "time": 108.44112225,
                        "value": 0
                    },
                    {
                        "number": 64,
                        "ticks": 18435,
                        "time": 108.44112225,
                        "value": 0
                    },
                    {
                        "number": 64,
                        "ticks": 18555,
                        "time": 109.14700425,
                        "value": 0
                    },
                    {
                        "number": 64,
                        "ticks": 18555,
                        "time": 109.14700425,
                        "value": 0
                    },
                    {
                        "number": 64,
                        "ticks": 18720,
                        "time": 110.117592,
                        "value": 0
                    },
                    {
                        "number": 64,
                        "ticks": 18720,
                        "time": 110.117592,
                        "value": 0
                    },
                    {
                        "number": 64,
                        "ticks": 18875,
                        "time": 111.02935624999999,
                        "value": 1
                    },
                    {
                        "number": 64,
                        "ticks": 18915,
                        "time": 111.26465025,
                        "value": 0
                    },
                    {
                        "number": 64,
                        "ticks": 19595,
                        "time": 115.26464825,
                        "value": 1
                    },
                    {
                        "number": 64,
                        "ticks": 19635,
                        "time": 115.49994225,
                        "value": 0
                    },
                    {
                        "number": 64,
                        "ticks": 19860,
                        "time": 116.823471,
                        "value": 1
                    },
                    {
                        "number": 64,
                        "ticks": 19920,
                        "time": 117.176412,
                        "value": 0
                    },
                    {
                        "number": 64,
                        "ticks": 20250,
                        "time": 119.1175875,
                        "value": 1
                    },
                    {
                        "number": 64,
                        "ticks": 20400,
                        "time": 119.99994,
                        "value": 0
                    },
                    {
                        "number": 64,
                        "ticks": 20730,
                        "time": 121.9411155,
                        "value": 1
                    },
                    {
                        "number": 64,
                        "ticks": 20880,
                        "time": 122.823468,
                        "value": 0
                    },
                    {
                        "number": 64,
                        "ticks": 20970,
                        "time": 123.3528795,
                        "value": 1
                    },
                    {
                        "number": 64,
                        "ticks": 21120,
                        "time": 124.235232,
                        "value": 0
                    },
                    {
                        "number": 64,
                        "ticks": 21300,
                        "time": 125.294055,
                        "value": 1
                    },
                    {
                        "number": 64,
                        "ticks": 21360,
                        "time": 125.646996,
                        "value": 0
                    },
                    {
                        "number": 64,
                        "ticks": 21540,
                        "time": 126.705819,
                        "value": 1
                    },
                    {
                        "number": 64,
                        "ticks": 21600,
                        "time": 127.05876,
                        "value": 0
                    },
                    {
                        "number": 64,
                        "ticks": 21780,
                        "time": 128.117583,
                        "value": 1
                    },
                    {
                        "number": 64,
                        "ticks": 21840,
                        "time": 128.470524,
                        "value": 0
                    },
                    {
                        "number": 64,
                        "ticks": 22200,
                        "time": 130.58817,
                        "value": 0
                    },
                    {
                        "number": 64,
                        "ticks": 22200,
                        "time": 130.58817,
                        "value": 0
                    },
                    {
                        "number": 64,
                        "ticks": 22680,
                        "time": 133.411698,
                        "value": 1
                    },
                    {
                        "number": 64,
                        "ticks": 22800,
                        "time": 134.11758,
                        "value": 0
                    },
                    {
                        "number": 64,
                        "ticks": 22890,
                        "time": 134.6469915,
                        "value": 1
                    },
                    {
                        "number": 64,
                        "ticks": 23040,
                        "time": 135.529344,
                        "value": 0
                    },
                    {
                        "number": 64,
                        "ticks": 24075,
                        "time": 141.61757625,
                        "value": 0
                    },
                    {
                        "number": 64,
                        "ticks": 24075,
                        "time": 141.61757625,
                        "value": 0
                    },
                    {
                        "number": 64,
                        "ticks": 24240,
                        "time": 142.588164,
                        "value": 0
                    },
                    {
                        "number": 64,
                        "ticks": 24240,
                        "time": 142.588164,
                        "value": 0
                    },
                    {
                        "number": 64,
                        "ticks": 24480,
                        "time": 143.999928,
                        "value": 0
                    },
                    {
                        "number": 64,
                        "ticks": 24480,
                        "time": 143.999928,
                        "value": 0
                    },
                    {
                        "number": 64,
                        "ticks": 25050,
                        "time": 147.3528675,
                        "value": 1
                    },
                    {
                        "number": 64,
                        "ticks": 25200,
                        "time": 148.23522,
                        "value": 0
                    },
                    {
                        "number": 64,
                        "ticks": 25530,
                        "time": 150.1763955,
                        "value": 1
                    },
                    {
                        "number": 64,
                        "ticks": 25635,
                        "time": 150.79404225,
                        "value": 0
                    },
                    {
                        "number": 64,
                        "ticks": 25860,
                        "time": 152.117571,
                        "value": 1
                    },
                    {
                        "number": 64,
                        "ticks": 25920,
                        "time": 152.470512,
                        "value": 0
                    },
                    {
                        "number": 64,
                        "ticks": 26010,
                        "time": 152.9999235,
                        "value": 1
                    },
                    {
                        "number": 64,
                        "ticks": 26160,
                        "time": 153.882276,
                        "value": 0
                    },
                    {
                        "number": 64,
                        "ticks": 27060,
                        "time": 159.176391,
                        "value": 1
                    },
                    {
                        "number": 64,
                        "ticks": 27120,
                        "time": 159.529332,
                        "value": 0
                    },
                    {
                        "number": 64,
                        "ticks": 27300,
                        "time": 160.588155,
                        "value": 1
                    },
                    {
                        "number": 64,
                        "ticks": 27360,
                        "time": 160.94109600000002,
                        "value": 0
                    },
                    {
                        "number": 64,
                        "ticks": 27720,
                        "time": 163.058742,
                        "value": 1
                    },
                    {
                        "number": 64,
                        "ticks": 27840,
                        "time": 163.764624,
                        "value": 0
                    },
                    {
                        "number": 64,
                        "ticks": 28080,
                        "time": 165.176388,
                        "value": 1
                    },
                    {
                        "number": 64,
                        "ticks": 28080,
                        "time": 165.176388,
                        "value": 0
                    },
                    {
                        "number": 64,
                        "ticks": 28260,
                        "time": 166.235211,
                        "value": 1
                    },
                    {
                        "number": 64,
                        "ticks": 28320,
                        "time": 166.588152,
                        "value": 0
                    },
                    {
                        "number": 64,
                        "ticks": 28680,
                        "time": 168.70579800000002,
                        "value": 1
                    },
                    {
                        "number": 64,
                        "ticks": 28800,
                        "time": 169.41168,
                        "value": 0
                    },
                    {
                        "number": 64,
                        "ticks": 28920,
                        "time": 170.117562,
                        "value": 1
                    },
                    {
                        "number": 64,
                        "ticks": 29280,
                        "time": 172.235208,
                        "value": 0
                    },
                    {
                        "number": 64,
                        "ticks": 29640,
                        "time": 174.352854,
                        "value": 1
                    },
                    {
                        "number": 64,
                        "ticks": 29715,
                        "time": 174.79403025,
                        "value": 0
                    },
                    {
                        "number": 64,
                        "ticks": 29880,
                        "time": 175.764618,
                        "value": 0
                    },
                    {
                        "number": 64,
                        "ticks": 29880,
                        "time": 175.764618,
                        "value": 0
                    },
                    {
                        "number": 64,
                        "ticks": 29880,
                        "time": 175.764618,
                        "value": 1
                    },
                    {
                        "number": 64,
                        "ticks": 29880,
                        "time": 175.764618,
                        "value": 0
                    },
                    {
                        "number": 64,
                        "ticks": 30120,
                        "time": 177.176382,
                        "value": 1
                    },
                    {
                        "number": 64,
                        "ticks": 30120,
                        "time": 177.176382,
                        "value": 0
                    },
                    {
                        "number": 64,
                        "ticks": 30900,
                        "time": 181.764615,
                        "value": 1
                    },
                    {
                        "number": 64,
                        "ticks": 30960,
                        "time": 182.117556,
                        "value": 0
                    },
                    {
                        "number": 64,
                        "ticks": 31200,
                        "time": 183.52932,
                        "value": 1
                    },
                    {
                        "number": 64,
                        "ticks": 31200,
                        "time": 183.52932,
                        "value": 0
                    },
                    {
                        "number": 64,
                        "ticks": 31380,
                        "time": 184.588143,
                        "value": 1
                    },
                    {
                        "number": 64,
                        "ticks": 31440,
                        "time": 184.941084,
                        "value": 0
                    },
                    {
                        "number": 64,
                        "ticks": 31860,
                        "time": 187.411671,
                        "value": 1
                    },
                    {
                        "number": 64,
                        "ticks": 31920,
                        "time": 187.764612,
                        "value": 0
                    },
                    {
                        "number": 64,
                        "ticks": 32010,
                        "time": 188.2940235,
                        "value": 1
                    },
                    {
                        "number": 64,
                        "ticks": 32115,
                        "time": 188.91167025000001,
                        "value": 0
                    },
                    {
                        "number": 64,
                        "ticks": 32280,
                        "time": 189.882258,
                        "value": 1
                    },
                    {
                        "number": 64,
                        "ticks": 32355,
                        "time": 190.32343425,
                        "value": 0
                    },
                    {
                        "number": 64,
                        "ticks": 32730,
                        "time": 192.5293155,
                        "value": 1
                    },
                    {
                        "number": 64,
                        "ticks": 32880,
                        "time": 193.411668,
                        "value": 0
                    },
                    {
                        "number": 64,
                        "ticks": 33210,
                        "time": 195.3528435,
                        "value": 1
                    },
                    {
                        "number": 64,
                        "ticks": 33360,
                        "time": 196.235196,
                        "value": 0
                    },
                    {
                        "number": 64,
                        "ticks": 33720,
                        "time": 198.352842,
                        "value": 0
                    },
                    {
                        "number": 64,
                        "ticks": 33720,
                        "time": 198.352842,
                        "value": 0
                    },
                    {
                        "number": 64,
                        "ticks": 34560,
                        "time": 203.294016,
                        "value": 1
                    },
                    {
                        "number": 64,
                        "ticks": 34560,
                        "time": 203.294016,
                        "value": 0
                    },
                    {
                        "number": 64,
                        "ticks": 34740,
                        "time": 204.352839,
                        "value": 1
                    },
                    {
                        "number": 64,
                        "ticks": 34800,
                        "time": 204.70578,
                        "value": 0
                    },
                    {
                        "number": 64,
                        "ticks": 35400,
                        "time": 208.23519,
                        "value": 1
                    },
                    {
                        "number": 64,
                        "ticks": 35520,
                        "time": 208.941072,
                        "value": 0
                    },
                    {
                        "number": 64,
                        "ticks": 35520,
                        "time": 208.941072,
                        "value": 1
                    },
                    {
                        "number": 64,
                        "ticks": 35520,
                        "time": 208.941072,
                        "value": 0
                    },
                    {
                        "number": 64,
                        "ticks": 35700,
                        "time": 209.999895,
                        "value": 1
                    },
                    {
                        "number": 64,
                        "ticks": 35760,
                        "time": 210.352836,
                        "value": 0
                    },
                    {
                        "number": 64,
                        "ticks": 35850,
                        "time": 210.8822475,
                        "value": 1
                    },
                    {
                        "number": 64,
                        "ticks": 36000,
                        "time": 211.7646,
                        "value": 0
                    },
                    {
                        "number": 64,
                        "ticks": 36240,
                        "time": 213.176364,
                        "value": 1
                    },
                    {
                        "number": 64,
                        "ticks": 36240,
                        "time": 213.176364,
                        "value": 0
                    },
                    {
                        "number": 64,
                        "ticks": 36420,
                        "time": 214.235187,
                        "value": 1
                    },
                    {
                        "number": 64,
                        "ticks": 36480,
                        "time": 214.588128,
                        "value": 0
                    },
                    {
                        "number": 64,
                        "ticks": 37050,
                        "time": 217.9410675,
                        "value": 1
                    },
                    {
                        "number": 64,
                        "ticks": 37200,
                        "time": 218.82342,
                        "value": 0
                    },
                    {
                        "number": 64,
                        "ticks": 37515,
                        "time": 220.67636025000002,
                        "value": 0
                    },
                    {
                        "number": 64,
                        "ticks": 37515,
                        "time": 220.67636025000002,
                        "value": 0
                    },
                    {
                        "number": 64,
                        "ticks": 37680,
                        "time": 221.646948,
                        "value": 0
                    },
                    {
                        "number": 64,
                        "ticks": 37680,
                        "time": 221.646948,
                        "value": 0
                    },
                    {
                        "number": 64,
                        "ticks": 37800,
                        "time": 222.35283,
                        "value": 0
                    },
                    {
                        "number": 64,
                        "ticks": 37800,
                        "time": 222.35283,
                        "value": 0
                    },
                    {
                        "number": 64,
                        "ticks": 38160,
                        "time": 224.470476,
                        "value": 1
                    },
                    {
                        "number": 64,
                        "ticks": 38160,
                        "time": 224.470476,
                        "value": 0
                    },
                    {
                        "number": 64,
                        "ticks": 38340,
                        "time": 225.529299,
                        "value": 1
                    },
                    {
                        "number": 64,
                        "ticks": 38400,
                        "time": 225.88224,
                        "value": 0
                    },
                    {
                        "number": 64,
                        "ticks": 39240,
                        "time": 230.823414,
                        "value": 1
                    },
                    {
                        "number": 64,
                        "ticks": 39360,
                        "time": 231.52929600000002,
                        "value": 0
                    },
                    {
                        "number": 64,
                        "ticks": 39360,
                        "time": 231.52929600000002,
                        "value": 1
                    },
                    {
                        "number": 64,
                        "ticks": 39360,
                        "time": 231.52929600000002,
                        "value": 0
                    },
                    {
                        "number": 64,
                        "ticks": 39600,
                        "time": 232.94106,
                        "value": 0
                    },
                    {
                        "number": 64,
                        "ticks": 39600,
                        "time": 232.94106,
                        "value": 0
                    },
                    {
                        "number": 64,
                        "ticks": 39690,
                        "time": 233.4704715,
                        "value": 1
                    },
                    {
                        "number": 64,
                        "ticks": 39720,
                        "time": 233.646942,
                        "value": 0
                    },
                    {
                        "number": 64,
                        "ticks": 39840,
                        "time": 234.352824,
                        "value": 0
                    },
                    {
                        "number": 64,
                        "ticks": 39840,
                        "time": 234.352824,
                        "value": 0
                    },
                    {
                        "number": 64,
                        "ticks": 39840,
                        "time": 234.352824,
                        "value": 1
                    },
                    {
                        "number": 64,
                        "ticks": 39840,
                        "time": 234.352824,
                        "value": 0
                    },
                    {
                        "number": 64,
                        "ticks": 40020,
                        "time": 235.41164700000002,
                        "value": 1
                    },
                    {
                        "number": 64,
                        "ticks": 40320,
                        "time": 237.176352,
                        "value": 0
                    },
                    {
                        "number": 64,
                        "ticks": 40320,
                        "time": 237.176352,
                        "value": 1
                    },
                    {
                        "number": 64,
                        "ticks": 40320,
                        "time": 237.176352,
                        "value": 0
                    },
                    {
                        "number": 64,
                        "ticks": 40500,
                        "time": 238.235175,
                        "value": 1
                    },
                    {
                        "number": 64,
                        "ticks": 40560,
                        "time": 238.588116,
                        "value": 0
                    },
                    {
                        "number": 64,
                        "ticks": 40560,
                        "time": 238.588116,
                        "value": 1
                    },
                    {
                        "number": 64,
                        "ticks": 40560,
                        "time": 238.588116,
                        "value": 0
                    },
                    {
                        "number": 64,
                        "ticks": 40740,
                        "time": 239.646939,
                        "value": 1
                    },
                    {
                        "number": 64,
                        "ticks": 40800,
                        "time": 239.99988,
                        "value": 0
                    },
                    {
                        "number": 64,
                        "ticks": 41130,
                        "time": 241.9410555,
                        "value": 1
                    },
                    {
                        "number": 64,
                        "ticks": 41235,
                        "time": 242.55870225,
                        "value": 0
                    },
                    {
                        "number": 64,
                        "ticks": 42810,
                        "time": 251.8234035,
                        "value": 1
                    },
                    {
                        "number": 64,
                        "ticks": 42960,
                        "time": 252.705756,
                        "value": 0
                    },
                    {
                        "number": 64,
                        "ticks": 43320,
                        "time": 254.82340200000002,
                        "value": 1
                    },
                    {
                        "number": 64,
                        "ticks": 43440,
                        "time": 255.529284,
                        "value": 0
                    },
                    {
                        "number": 64,
                        "ticks": 43530,
                        "time": 256.0586955,
                        "value": 1
                    },
                    {
                        "number": 64,
                        "ticks": 43680,
                        "time": 256.941048,
                        "value": 0
                    },
                    {
                        "number": 64,
                        "ticks": 43770,
                        "time": 257.4704595,
                        "value": 1
                    },
                    {
                        "number": 64,
                        "ticks": 43920,
                        "time": 258.35281200000003,
                        "value": 0
                    },
                    {
                        "number": 64,
                        "ticks": 44160,
                        "time": 259.764576,
                        "value": 1
                    },
                    {
                        "number": 64,
                        "ticks": 44160,
                        "time": 259.764576,
                        "value": 0
                    },
                    {
                        "number": 64,
                        "ticks": 44340,
                        "time": 260.823399,
                        "value": 1
                    },
                    {
                        "number": 64,
                        "ticks": 44595,
                        "time": 262.32339825,
                        "value": 0
                    },
                    {
                        "number": 64,
                        "ticks": 44970,
                        "time": 264.52927950000003,
                        "value": 1
                    },
                    {
                        "number": 64,
                        "ticks": 45120,
                        "time": 265.411632,
                        "value": 0
                    },
                    {
                        "number": 64,
                        "ticks": 45210,
                        "time": 265.9410435,
                        "value": 1
                    },
                    {
                        "number": 64,
                        "ticks": 45240,
                        "time": 266.117514,
                        "value": 0
                    },
                    {
                        "number": 64,
                        "ticks": 45480,
                        "time": 267.529278,
                        "value": 0
                    },
                    {
                        "number": 64,
                        "ticks": 45480,
                        "time": 267.529278,
                        "value": 0
                    },
                    {
                        "number": 64,
                        "ticks": 45515,
                        "time": 267.73516025000004,
                        "value": 1
                    },
                    {
                        "number": 64,
                        "ticks": 45555,
                        "time": 267.97045425,
                        "value": 0
                    },
                    {
                        "number": 64,
                        "ticks": 45780,
                        "time": 269.293983,
                        "value": 1
                    },
                    {
                        "number": 64,
                        "ticks": 46080,
                        "time": 271.058688,
                        "value": 0
                    },
                    {
                        "number": 64,
                        "ticks": 46080,
                        "time": 271.058688,
                        "value": 1
                    },
                    {
                        "number": 64,
                        "ticks": 46080,
                        "time": 271.058688,
                        "value": 0
                    },
                    {
                        "number": 64,
                        "ticks": 46260,
                        "time": 272.117511,
                        "value": 1
                    },
                    {
                        "number": 64,
                        "ticks": 47040,
                        "time": 276.705744,
                        "value": 0
                    },
                    {
                        "number": 64,
                        "ticks": 47040,
                        "time": 276.705744,
                        "value": 0
                    }
                ]
            },
            "pitchBends": [],
            "instrument": {
                "family": "piano",
                "number": 0,
                "name": "acoustic grand piano"
            },
            "name": "Piano   (BB)",
            "notes": [
                {
                    "duration": 0.35294100000000006,
                    "durationTicks": 60,
                    "midi": 66,
                    "name": "F#4",
                    "ticks": 120,
                    "time": 0.705882,
                    "velocity": 0.4330708661417323
                },
                {
                    "duration": 0.35294100000000006,
                    "durationTicks": 60,
                    "midi": 63,
                    "name": "D#4",
                    "ticks": 120,
                    "time": 0.705882,
                    "velocity": 0.4330708661417323
                },
                {
                    "duration": 0.35294100000000006,
                    "durationTicks": 60,
                    "midi": 61,
                    "name": "C#4",
                    "ticks": 120,
                    "time": 0.705882,
                    "velocity": 0.4330708661417323
                },
                {
                    "duration": 0.35294100000000006,
                    "durationTicks": 60,
                    "midi": 70,
                    "name": "A#4",
                    "ticks": 120,
                    "time": 0.705882,
                    "velocity": 0.4330708661417323
                },
                {
                    "duration": 1.411764,
                    "durationTicks": 240,
                    "midi": 59,
                    "name": "B3",
                    "ticks": 240,
                    "time": 1.411764,
                    "velocity": 0.4409448818897638
                },
                {
                    "duration": 1.411764,
                    "durationTicks": 240,
                    "midi": 56,
                    "name": "G#3",
                    "ticks": 240,
                    "time": 1.411764,
                    "velocity": 0.5275590551181102
                },
                {
                    "duration": 1.411764,
                    "durationTicks": 240,
                    "midi": 50,
                    "name": "D3",
                    "ticks": 240,
                    "time": 1.411764,
                    "velocity": 0.30708661417322836
                },
                {
                    "duration": 1.2352935,
                    "durationTicks": 210,
                    "midi": 62,
                    "name": "D4",
                    "ticks": 270,
                    "time": 1.5882345,
                    "velocity": 0.48031496062992124
                },
                {
                    "duration": 1.058823,
                    "durationTicks": 180,
                    "midi": 66,
                    "name": "F#4",
                    "ticks": 300,
                    "time": 1.764705,
                    "velocity": 0.4094488188976378
                },
                {
                    "duration": 0.3529410000000004,
                    "durationTicks": 60,
                    "midi": 66,
                    "name": "F#4",
                    "ticks": 660,
                    "time": 3.882351,
                    "velocity": 0.4330708661417323
                },
                {
                    "duration": 0.3529410000000004,
                    "durationTicks": 60,
                    "midi": 65,
                    "name": "F4",
                    "ticks": 660,
                    "time": 3.882351,
                    "velocity": 0.4330708661417323
                },
                {
                    "duration": 0.3529410000000004,
                    "durationTicks": 60,
                    "midi": 61,
                    "name": "C#4",
                    "ticks": 660,
                    "time": 3.882351,
                    "velocity": 0.4330708661417323
                },
                {
                    "duration": 0.3529410000000004,
                    "durationTicks": 60,
                    "midi": 70,
                    "name": "A#4",
                    "ticks": 660,
                    "time": 3.882351,
                    "velocity": 0.4330708661417323
                },
                {
                    "duration": 0.3529409999999995,
                    "durationTicks": 60,
                    "midi": 66,
                    "name": "F#4",
                    "ticks": 840,
                    "time": 4.941174,
                    "velocity": 0.4330708661417323
                },
                {
                    "duration": 0.3529409999999995,
                    "durationTicks": 60,
                    "midi": 65,
                    "name": "F4",
                    "ticks": 840,
                    "time": 4.941174,
                    "velocity": 0.4330708661417323
                },
                {
                    "duration": 0.3529409999999995,
                    "durationTicks": 60,
                    "midi": 60,
                    "name": "C4",
                    "ticks": 840,
                    "time": 4.941174,
                    "velocity": 0.4330708661417323
                },
                {
                    "duration": 0.3529409999999995,
                    "durationTicks": 60,
                    "midi": 70,
                    "name": "A#4",
                    "ticks": 840,
                    "time": 4.941174,
                    "velocity": 0.4330708661417323
                },
                {
                    "duration": 1.4117639999999998,
                    "durationTicks": 240,
                    "midi": 75,
                    "name": "D#5",
                    "ticks": 960,
                    "time": 5.647056,
                    "velocity": 0.4881889763779528
                },
                {
                    "duration": 0.17647049999999975,
                    "durationTicks": 30,
                    "midi": 65,
                    "name": "F4",
                    "ticks": 1080,
                    "time": 6.352938,
                    "velocity": 0.4251968503937008
                },
                {
                    "duration": 0.17647049999999975,
                    "durationTicks": 30,
                    "midi": 63,
                    "name": "D#4",
                    "ticks": 1080,
                    "time": 6.352938,
                    "velocity": 0.4251968503937008
                },
                {
                    "duration": 0.17647049999999975,
                    "durationTicks": 30,
                    "midi": 60,
                    "name": "C4",
                    "ticks": 1080,
                    "time": 6.352938,
                    "velocity": 0.4251968503937008
                },
                {
                    "duration": 0.17647049999999975,
                    "durationTicks": 30,
                    "midi": 68,
                    "name": "G#4",
                    "ticks": 1080,
                    "time": 6.352938,
                    "velocity": 0.4251968503937008
                },
                {
                    "duration": 0.17647050000000064,
                    "durationTicks": 30,
                    "midi": 70,
                    "name": "A#4",
                    "ticks": 1200,
                    "time": 7.05882,
                    "velocity": 0.49606299212598426
                },
                {
                    "duration": 0.17647050000000064,
                    "durationTicks": 30,
                    "midi": 66,
                    "name": "F#4",
                    "ticks": 1200,
                    "time": 7.05882,
                    "velocity": 0.49606299212598426
                },
                {
                    "duration": 0.17647050000000064,
                    "durationTicks": 30,
                    "midi": 64,
                    "name": "E4",
                    "ticks": 1200,
                    "time": 7.05882,
                    "velocity": 0.49606299212598426
                },
                {
                    "duration": 0.17647050000000064,
                    "durationTicks": 30,
                    "midi": 73,
                    "name": "C#5",
                    "ticks": 1200,
                    "time": 7.05882,
                    "velocity": 0.49606299212598426
                },
                {
                    "duration": 0.17647050000000064,
                    "durationTicks": 30,
                    "midi": 70,
                    "name": "A#4",
                    "ticks": 1320,
                    "time": 7.764702,
                    "velocity": 0.36220472440944884
                },
                {
                    "duration": 0.17647050000000064,
                    "durationTicks": 30,
                    "midi": 66,
                    "name": "F#4",
                    "ticks": 1320,
                    "time": 7.764702,
                    "velocity": 0.36220472440944884
                },
                {
                    "duration": 0.17647050000000064,
                    "durationTicks": 30,
                    "midi": 64,
                    "name": "E4",
                    "ticks": 1320,
                    "time": 7.764702,
                    "velocity": 0.36220472440944884
                },
                {
                    "duration": 0.17647050000000064,
                    "durationTicks": 30,
                    "midi": 73,
                    "name": "C#5",
                    "ticks": 1320,
                    "time": 7.764702,
                    "velocity": 0.36220472440944884
                },
                {
                    "duration": 1.4117639999999998,
                    "durationTicks": 240,
                    "midi": 60,
                    "name": "C4",
                    "ticks": 1440,
                    "time": 8.470584,
                    "velocity": 0.4409448818897638
                },
                {
                    "duration": 1.4117639999999998,
                    "durationTicks": 240,
                    "midi": 56,
                    "name": "G#3",
                    "ticks": 1440,
                    "time": 8.470584,
                    "velocity": 0.5275590551181102
                },
                {
                    "duration": 1.4117639999999998,
                    "durationTicks": 240,
                    "midi": 51,
                    "name": "D#3",
                    "ticks": 1440,
                    "time": 8.470584,
                    "velocity": 0.30708661417322836
                },
                {
                    "duration": 1.235293500000001,
                    "durationTicks": 210,
                    "midi": 63,
                    "name": "D#4",
                    "ticks": 1470,
                    "time": 8.6470545,
                    "velocity": 0.48031496062992124
                },
                {
                    "duration": 1.0588230000000003,
                    "durationTicks": 180,
                    "midi": 65,
                    "name": "F4",
                    "ticks": 1500,
                    "time": 8.823525,
                    "velocity": 0.4094488188976378
                },
                {
                    "duration": 0.8823524999999997,
                    "durationTicks": 150,
                    "midi": 70,
                    "name": "A#4",
                    "ticks": 1680,
                    "time": 9.882348,
                    "velocity": 0.4881889763779528
                },
                {
                    "duration": 0.17647050000000064,
                    "durationTicks": 30,
                    "midi": 67,
                    "name": "G4",
                    "ticks": 1800,
                    "time": 10.58823,
                    "velocity": 0.4251968503937008
                },
                {
                    "duration": 0.17647050000000064,
                    "durationTicks": 30,
                    "midi": 64,
                    "name": "E4",
                    "ticks": 1800,
                    "time": 10.58823,
                    "velocity": 0.4251968503937008
                },
                {
                    "duration": 0.17647050000000064,
                    "durationTicks": 30,
                    "midi": 61,
                    "name": "C#4",
                    "ticks": 1800,
                    "time": 10.58823,
                    "velocity": 0.4251968503937008
                },
                {
                    "duration": 0.7058820000000008,
                    "durationTicks": 120,
                    "midi": 70,
                    "name": "A#4",
                    "ticks": 1800,
                    "time": 10.58823,
                    "velocity": 0.4251968503937008
                }
            ],
            "endOfTrackTicks": 47041
        },
        {
            "channel": 3,
            "controlChanges": {
                "0": [
                    {
                        "number": 0,
                        "ticks": 0,
                        "time": 0,
                        "value": 0
                    },
                    {
                        "number": 0,
                        "ticks": 9600,
                        "time": 56.47056,
                        "value": 0
                    }
                ],
                "7": [
                    {
                        "number": 7,
                        "ticks": 0,
                        "time": 0,
                        "value": 0.7086614173228346
                    }
                ],
                "10": [
                    {
                        "number": 10,
                        "ticks": 0,
                        "time": 0,
                        "value": 0.5039370078740157
                    }
                ],
                "64": [
                    {
                        "number": 64,
                        "ticks": 37,
                        "time": 0.21764695,
                        "value": 1
                    },
                    {
                        "number": 64,
                        "ticks": 240,
                        "time": 1.411764,
                        "value": 0
                    },
                    {
                        "number": 64,
                        "ticks": 284,
                        "time": 1.6705874,
                        "value": 1
                    },
                    {
                        "number": 64,
                        "ticks": 469,
                        "time": 2.75882215,
                        "value": 0
                    },
                    {
                        "number": 64,
                        "ticks": 522,
                        "time": 3.0705867,
                        "value": 1
                    },
                    {
                        "number": 64,
                        "ticks": 720,
                        "time": 4.235292,
                        "value": 0
                    },
                    {
                        "number": 64,
                        "ticks": 762,
                        "time": 4.4823507,
                        "value": 1
                    },
                    {
                        "number": 64,
                        "ticks": 960,
                        "time": 5.647056,
                        "value": 0
                    },
                    {
                        "number": 64,
                        "ticks": 997,
                        "time": 5.86470295,
                        "value": 1
                    },
                    {
                        "number": 64,
                        "ticks": 1200,
                        "time": 7.05882,
                        "value": 0
                    },
                    {
                        "number": 64,
                        "ticks": 1238,
                        "time": 7.2823493,
                        "value": 1
                    },
                    {
                        "number": 64,
                        "ticks": 1440,
                        "time": 8.470584,
                        "value": 0
                    },
                    {
                        "number": 64,
                        "ticks": 1477,
                        "time": 8.68823095,
                        "value": 1
                    },
                    {
                        "number": 64,
                        "ticks": 1680,
                        "time": 9.882348,
                        "value": 0
                    },
                    {
                        "number": 64,
                        "ticks": 1722,
                        "time": 10.1294067,
                        "value": 1
                    },
                    {
                        "number": 64,
                        "ticks": 1920,
                        "time": 11.294112,
                        "value": 0
                    },
                    {
                        "number": 64,
                        "ticks": 1964,
                        "time": 11.5529354,
                        "value": 1
                    },
                    {
                        "number": 64,
                        "ticks": 2149,
                        "time": 12.64117015,
                        "value": 0
                    },
                    {
                        "number": 64,
                        "ticks": 2198,
                        "time": 12.9294053,
                        "value": 1
                    },
                    {
                        "number": 64,
                        "ticks": 2400,
                        "time": 14.11764,
                        "value": 0
                    },
                    {
                        "number": 64,
                        "ticks": 2505,
                        "time": 14.73528675,
                        "value": 1
                    },
                    {
                        "number": 64,
                        "ticks": 2640,
                        "time": 15.529404,
                        "value": 0
                    },
                    {
                        "number": 64,
                        "ticks": 2678,
                        "time": 15.7529333,
                        "value": 1
                    },
                    {
                        "number": 64,
                        "ticks": 2880,
                        "time": 16.941168,
                        "value": 0
                    },
                    {
                        "number": 64,
                        "ticks": 2917,
                        "time": 17.15881495,
                        "value": 1
                    },
                    {
                        "number": 64,
                        "ticks": 3000,
                        "time": 17.64705,
                        "value": 0
                    },
                    {
                        "number": 64,
                        "ticks": 3037,
                        "time": 17.86469695,
                        "value": 1
                    },
                    {
                        "number": 64,
                        "ticks": 3120,
                        "time": 18.352932,
                        "value": 0
                    },
                    {
                        "number": 64,
                        "ticks": 3157,
                        "time": 18.57057895,
                        "value": 1
                    },
                    {
                        "number": 64,
                        "ticks": 3240,
                        "time": 19.058814,
                        "value": 0
                    },
                    {
                        "number": 64,
                        "ticks": 3277,
                        "time": 19.27646095,
                        "value": 1
                    },
                    {
                        "number": 64,
                        "ticks": 3360,
                        "time": 19.764696,
                        "value": 0
                    },
                    {
                        "number": 64,
                        "ticks": 3397,
                        "time": 19.98234295,
                        "value": 1
                    },
                    {
                        "number": 64,
                        "ticks": 3555,
                        "time": 20.91175425,
                        "value": 0
                    },
                    {
                        "number": 64,
                        "ticks": 3637,
                        "time": 21.39410695,
                        "value": 1
                    },
                    {
                        "number": 64,
                        "ticks": 3840,
                        "time": 22.588224,
                        "value": 0
                    },
                    {
                        "number": 64,
                        "ticks": 3884,
                        "time": 22.8470474,
                        "value": 1
                    },
                    {
                        "number": 64,
                        "ticks": 4069,
                        "time": 23.93528215,
                        "value": 0
                    },
                    {
                        "number": 64,
                        "ticks": 4122,
                        "time": 24.247046700000002,
                        "value": 1
                    },
                    {
                        "number": 64,
                        "ticks": 4320,
                        "time": 25.411752,
                        "value": 0
                    },
                    {
                        "number": 64,
                        "ticks": 4425,
                        "time": 26.02939875,
                        "value": 1
                    },
                    {
                        "number": 64,
                        "ticks": 4560,
                        "time": 26.823516,
                        "value": 0
                    },
                    {
                        "number": 64,
                        "ticks": 4598,
                        "time": 27.047045300000004,
                        "value": 1
                    },
                    {
                        "number": 64,
                        "ticks": 4800,
                        "time": 28.23528,
                        "value": 0
                    },
                    {
                        "number": 64,
                        "ticks": 4842,
                        "time": 28.4823387,
                        "value": 1
                    },
                    {
                        "number": 64,
                        "ticks": 5040,
                        "time": 29.647044,
                        "value": 0
                    },
                    {
                        "number": 64,
                        "ticks": 5084,
                        "time": 29.9058674,
                        "value": 1
                    },
                    {
                        "number": 64,
                        "ticks": 5269,
                        "time": 30.99410215,
                        "value": 0
                    },
                    {
                        "number": 64,
                        "ticks": 5385,
                        "time": 31.67645475,
                        "value": 1
                    },
                    {
                        "number": 64,
                        "ticks": 5520,
                        "time": 32.470572,
                        "value": 0
                    },
                    {
                        "number": 64,
                        "ticks": 5558,
                        "time": 32.6941013,
                        "value": 1
                    },
                    {
                        "number": 64,
                        "ticks": 5760,
                        "time": 33.882336,
                        "value": 0
                    },
                    {
                        "number": 64,
                        "ticks": 5804,
                        "time": 34.1411594,
                        "value": 1
                    },
                    {
                        "number": 64,
                        "ticks": 5989,
                        "time": 35.22939415,
                        "value": 0
                    },
                    {
                        "number": 64,
                        "ticks": 6038,
                        "time": 35.5176293,
                        "value": 1
                    },
                    {
                        "number": 64,
                        "ticks": 6215,
                        "time": 36.55880525,
                        "value": 0
                    },
                    {
                        "number": 64,
                        "ticks": 6345,
                        "time": 37.32351075,
                        "value": 1
                    },
                    {
                        "number": 64,
                        "ticks": 6480,
                        "time": 38.117628,
                        "value": 0
                    },
                    {
                        "number": 64,
                        "ticks": 6518,
                        "time": 38.341157300000006,
                        "value": 1
                    },
                    {
                        "number": 64,
                        "ticks": 6720,
                        "time": 39.529392,
                        "value": 0
                    },
                    {
                        "number": 64,
                        "ticks": 6757,
                        "time": 39.74703895,
                        "value": 1
                    },
                    {
                        "number": 64,
                        "ticks": 6840,
                        "time": 40.235274000000004,
                        "value": 0
                    },
                    {
                        "number": 64,
                        "ticks": 6877,
                        "time": 40.45292095,
                        "value": 1
                    },
                    {
                        "number": 64,
                        "ticks": 6960,
                        "time": 40.941156,
                        "value": 0
                    },
                    {
                        "number": 64,
                        "ticks": 6997,
                        "time": 41.158802949999995,
                        "value": 1
                    },
                    {
                        "number": 64,
                        "ticks": 7080,
                        "time": 41.647038,
                        "value": 0
                    },
                    {
                        "number": 64,
                        "ticks": 7117,
                        "time": 41.86468495,
                        "value": 1
                    },
                    {
                        "number": 64,
                        "ticks": 7200,
                        "time": 42.35292,
                        "value": 0
                    },
                    {
                        "number": 64,
                        "ticks": 7237,
                        "time": 42.57056695,
                        "value": 1
                    },
                    {
                        "number": 64,
                        "ticks": 7440,
                        "time": 43.764684,
                        "value": 0
                    },
                    {
                        "number": 64,
                        "ticks": 7482,
                        "time": 44.0117427,
                        "value": 1
                    },
                    {
                        "number": 64,
                        "ticks": 7680,
                        "time": 45.176448,
                        "value": 0
                    },
                    {
                        "number": 64,
                        "ticks": 7785,
                        "time": 45.79409475,
                        "value": 1
                    },
                    {
                        "number": 64,
                        "ticks": 7920,
                        "time": 46.588212,
                        "value": 0
                    },
                    {
                        "number": 64,
                        "ticks": 7962,
                        "time": 46.835270699999995,
                        "value": 1
                    },
                    {
                        "number": 64,
                        "ticks": 8160,
                        "time": 47.999976000000004,
                        "value": 0
                    },
                    {
                        "number": 64,
                        "ticks": 8202,
                        "time": 48.24703469999999,
                        "value": 1
                    },
                    {
                        "number": 64,
                        "ticks": 8400,
                        "time": 49.41174,
                        "value": 0
                    },
                    {
                        "number": 64,
                        "ticks": 8442,
                        "time": 49.6587987,
                        "value": 1
                    },
                    {
                        "number": 64,
                        "ticks": 8640,
                        "time": 50.823504,
                        "value": 0
                    },
                    {
                        "number": 64,
                        "ticks": 8677,
                        "time": 51.04115095,
                        "value": 1
                    },
                    {
                        "number": 64,
                        "ticks": 8760,
                        "time": 51.529386,
                        "value": 0
                    },
                    {
                        "number": 64,
                        "ticks": 8797,
                        "time": 51.747032950000005,
                        "value": 1
                    },
                    {
                        "number": 64,
                        "ticks": 8880,
                        "time": 52.235268,
                        "value": 0
                    },
                    {
                        "number": 64,
                        "ticks": 8917,
                        "time": 52.45291495,
                        "value": 1
                    },
                    {
                        "number": 64,
                        "ticks": 9000,
                        "time": 52.94115,
                        "value": 0
                    },
                    {
                        "number": 64,
                        "ticks": 9037,
                        "time": 53.15879695,
                        "value": 1
                    },
                    {
                        "number": 64,
                        "ticks": 9120,
                        "time": 53.647032,
                        "value": 0
                    },
                    {
                        "number": 64,
                        "ticks": 9225,
                        "time": 54.26467875,
                        "value": 1
                    },
                    {
                        "number": 64,
                        "ticks": 9563,
                        "time": 56.25291305,
                        "value": 0
                    },
                    {
                        "number": 64,
                        "ticks": 9642,
                        "time": 56.717618699999996,
                        "value": 1
                    },
                    {
                        "number": 64,
                        "ticks": 9840,
                        "time": 57.882324000000004,
                        "value": 0
                    },
                    {
                        "number": 64,
                        "ticks": 9884,
                        "time": 58.141147399999994,
                        "value": 1
                    },
                    {
                        "number": 64,
                        "ticks": 10069,
                        "time": 59.22938215,
                        "value": 0
                    },
                    {
                        "number": 64,
                        "ticks": 10122,
                        "time": 59.5411467,
                        "value": 1
                    },
                    {
                        "number": 64,
                        "ticks": 10320,
                        "time": 60.705852,
                        "value": 0
                    },
                    {
                        "number": 64,
                        "ticks": 10358,
                        "time": 60.929381299999996,
                        "value": 1
                    },
                    {
                        "number": 64,
                        "ticks": 10560,
                        "time": 62.117616,
                        "value": 0
                    },
                    {
                        "number": 64,
                        "ticks": 10665,
                        "time": 62.735262750000004,
                        "value": 1
                    },
                    {
                        "number": 64,
                        "ticks": 10800,
                        "time": 63.52938,
                        "value": 0
                    },
                    {
                        "number": 64,
                        "ticks": 10842,
                        "time": 63.7764387,
                        "value": 1
                    },
                    {
                        "number": 64,
                        "ticks": 11040,
                        "time": 64.941144,
                        "value": 0
                    },
                    {
                        "number": 64,
                        "ticks": 11077,
                        "time": 65.15879095,
                        "value": 1
                    },
                    {
                        "number": 64,
                        "ticks": 11160,
                        "time": 65.647026,
                        "value": 0
                    },
                    {
                        "number": 64,
                        "ticks": 11195,
                        "time": 65.85290825,
                        "value": 1
                    },
                    {
                        "number": 64,
                        "ticks": 11235,
                        "time": 66.08820225,
                        "value": 0
                    },
                    {
                        "number": 64,
                        "ticks": 11317,
                        "time": 66.57055495,
                        "value": 1
                    },
                    {
                        "number": 64,
                        "ticks": 11520,
                        "time": 67.764672,
                        "value": 0
                    },
                    {
                        "number": 64,
                        "ticks": 11558,
                        "time": 67.9882013,
                        "value": 1
                    },
                    {
                        "number": 64,
                        "ticks": 11735,
                        "time": 69.02937725000001,
                        "value": 0
                    },
                    {
                        "number": 64,
                        "ticks": 11794,
                        "time": 69.3764359,
                        "value": 1
                    },
                    {
                        "number": 64,
                        "ticks": 12000,
                        "time": 70.5882,
                        "value": 0
                    },
                    {
                        "number": 64,
                        "ticks": 12042,
                        "time": 70.8352587,
                        "value": 1
                    },
                    {
                        "number": 64,
                        "ticks": 12240,
                        "time": 71.999964,
                        "value": 0
                    },
                    {
                        "number": 64,
                        "ticks": 12274,
                        "time": 72.1999639,
                        "value": 1
                    },
                    {
                        "number": 64,
                        "ticks": 12480,
                        "time": 73.411728,
                        "value": 0
                    },
                    {
                        "number": 64,
                        "ticks": 12522,
                        "time": 73.6587867,
                        "value": 1
                    },
                    {
                        "number": 64,
                        "ticks": 12720,
                        "time": 74.823492,
                        "value": 0
                    },
                    {
                        "number": 64,
                        "ticks": 12762,
                        "time": 75.0705507,
                        "value": 1
                    },
                    {
                        "number": 64,
                        "ticks": 12960,
                        "time": 76.235256,
                        "value": 0
                    },
                    {
                        "number": 64,
                        "ticks": 12997,
                        "time": 76.45290295000001,
                        "value": 1
                    },
                    {
                        "number": 64,
                        "ticks": 13200,
                        "time": 77.64702,
                        "value": 0
                    },
                    {
                        "number": 64,
                        "ticks": 13238,
                        "time": 77.8705493,
                        "value": 1
                    },
                    {
                        "number": 64,
                        "ticks": 13440,
                        "time": 79.058784,
                        "value": 0
                    },
                    {
                        "number": 64,
                        "ticks": 13477,
                        "time": 79.27643095,
                        "value": 1
                    },
                    {
                        "number": 64,
                        "ticks": 13920,
                        "time": 81.882312,
                        "value": 0
                    },
                    {
                        "number": 64,
                        "ticks": 13962,
                        "time": 82.1293707,
                        "value": 1
                    },
                    {
                        "number": 64,
                        "ticks": 14160,
                        "time": 83.294076,
                        "value": 0
                    },
                    {
                        "number": 64,
                        "ticks": 14202,
                        "time": 83.5411347,
                        "value": 1
                    },
                    {
                        "number": 64,
                        "ticks": 14400,
                        "time": 84.70584,
                        "value": 0
                    },
                    {
                        "number": 64,
                        "ticks": 14437,
                        "time": 84.92348695,
                        "value": 1
                    },
                    {
                        "number": 64,
                        "ticks": 14520,
                        "time": 85.411722,
                        "value": 0
                    },
                    {
                        "number": 64,
                        "ticks": 14557,
                        "time": 85.62936895,
                        "value": 1
                    },
                    {
                        "number": 64,
                        "ticks": 14640,
                        "time": 86.117604,
                        "value": 0
                    },
                    {
                        "number": 64,
                        "ticks": 14677,
                        "time": 86.33525095,
                        "value": 1
                    },
                    {
                        "number": 64,
                        "ticks": 14760,
                        "time": 86.823486,
                        "value": 0
                    },
                    {
                        "number": 64,
                        "ticks": 14797,
                        "time": 87.04113295,
                        "value": 1
                    },
                    {
                        "number": 64,
                        "ticks": 14880,
                        "time": 87.529368,
                        "value": 0
                    },
                    {
                        "number": 64,
                        "ticks": 14922,
                        "time": 87.7764267,
                        "value": 1
                    },
                    {
                        "number": 64,
                        "ticks": 15149,
                        "time": 89.11172015,
                        "value": 0
                    },
                    {
                        "number": 64,
                        "ticks": 15465,
                        "time": 90.97054275,
                        "value": 1
                    },
                    {
                        "number": 64,
                        "ticks": 15555,
                        "time": 91.49995425,
                        "value": 0
                    },
                    {
                        "number": 64,
                        "ticks": 15637,
                        "time": 91.98230695000001,
                        "value": 1
                    },
                    {
                        "number": 64,
                        "ticks": 15840,
                        "time": 93.176424,
                        "value": 0
                    },
                    {
                        "number": 64,
                        "ticks": 15877,
                        "time": 93.39407095,
                        "value": 1
                    },
                    {
                        "number": 64,
                        "ticks": 16080,
                        "time": 94.588188,
                        "value": 0
                    },
                    {
                        "number": 64,
                        "ticks": 16118,
                        "time": 94.8117173,
                        "value": 1
                    },
                    {
                        "number": 64,
                        "ticks": 16320,
                        "time": 95.99995200000001,
                        "value": 0
                    },
                    {
                        "number": 64,
                        "ticks": 16362,
                        "time": 96.2470107,
                        "value": 1
                    },
                    {
                        "number": 64,
                        "ticks": 16515,
                        "time": 97.14701025000001,
                        "value": 0
                    },
                    {
                        "number": 64,
                        "ticks": 16597,
                        "time": 97.62936295,
                        "value": 1
                    },
                    {
                        "number": 64,
                        "ticks": 16800,
                        "time": 98.82348,
                        "value": 0
                    },
                    {
                        "number": 64,
                        "ticks": 16842,
                        "time": 99.0705387,
                        "value": 1
                    },
                    {
                        "number": 64,
                        "ticks": 16995,
                        "time": 99.97053825,
                        "value": 0
                    },
                    {
                        "number": 64,
                        "ticks": 17077,
                        "time": 100.45289095000001,
                        "value": 1
                    },
                    {
                        "number": 64,
                        "ticks": 17280,
                        "time": 101.647008,
                        "value": 0
                    },
                    {
                        "number": 64,
                        "ticks": 17322,
                        "time": 101.8940667,
                        "value": 1
                    },
                    {
                        "number": 64,
                        "ticks": 17520,
                        "time": 103.058772,
                        "value": 0
                    },
                    {
                        "number": 64,
                        "ticks": 17558,
                        "time": 103.2823013,
                        "value": 1
                    },
                    {
                        "number": 64,
                        "ticks": 17760,
                        "time": 104.470536,
                        "value": 0
                    },
                    {
                        "number": 64,
                        "ticks": 17802,
                        "time": 104.71759469999999,
                        "value": 1
                    },
                    {
                        "number": 64,
                        "ticks": 17955,
                        "time": 105.61759425,
                        "value": 0
                    },
                    {
                        "number": 64,
                        "ticks": 18037,
                        "time": 106.09994695,
                        "value": 1
                    },
                    {
                        "number": 64,
                        "ticks": 18240,
                        "time": 107.294064,
                        "value": 0
                    },
                    {
                        "number": 64,
                        "ticks": 18277,
                        "time": 107.51171095000001,
                        "value": 1
                    },
                    {
                        "number": 64,
                        "ticks": 18360,
                        "time": 107.99994600000001,
                        "value": 0
                    },
                    {
                        "number": 64,
                        "ticks": 18397,
                        "time": 108.21759295000001,
                        "value": 1
                    },
                    {
                        "number": 64,
                        "ticks": 18480,
                        "time": 108.705828,
                        "value": 0
                    },
                    {
                        "number": 64,
                        "ticks": 18517,
                        "time": 108.92347495,
                        "value": 1
                    },
                    {
                        "number": 64,
                        "ticks": 18600,
                        "time": 109.41171,
                        "value": 0
                    },
                    {
                        "number": 64,
                        "ticks": 18637,
                        "time": 109.62935695,
                        "value": 1
                    },
                    {
                        "number": 64,
                        "ticks": 18720,
                        "time": 110.117592,
                        "value": 0
                    },
                    {
                        "number": 64,
                        "ticks": 18825,
                        "time": 110.73523875000001,
                        "value": 1
                    },
                    {
                        "number": 64,
                        "ticks": 18915,
                        "time": 111.26465025,
                        "value": 0
                    },
                    {
                        "number": 64,
                        "ticks": 18997,
                        "time": 111.74700295000001,
                        "value": 1
                    },
                    {
                        "number": 64,
                        "ticks": 19200,
                        "time": 112.94112,
                        "value": 0
                    },
                    {
                        "number": 64,
                        "ticks": 19305,
                        "time": 113.55876675,
                        "value": 1
                    },
                    {
                        "number": 64,
                        "ticks": 19440,
                        "time": 114.352884,
                        "value": 0
                    },
                    {
                        "number": 64,
                        "ticks": 19482,
                        "time": 114.5999427,
                        "value": 1
                    },
                    {
                        "number": 64,
                        "ticks": 19680,
                        "time": 115.76464800000001,
                        "value": 0
                    },
                    {
                        "number": 64,
                        "ticks": 19722,
                        "time": 116.01170669999999,
                        "value": 1
                    },
                    {
                        "number": 64,
                        "ticks": 19920,
                        "time": 117.176412,
                        "value": 0
                    },
                    {
                        "number": 64,
                        "ticks": 19958,
                        "time": 117.3999413,
                        "value": 1
                    },
                    {
                        "number": 64,
                        "ticks": 20160,
                        "time": 118.588176,
                        "value": 0
                    },
                    {
                        "number": 64,
                        "ticks": 20197,
                        "time": 118.80582295,
                        "value": 1
                    },
                    {
                        "number": 64,
                        "ticks": 20400,
                        "time": 119.99994,
                        "value": 0
                    },
                    {
                        "number": 64,
                        "ticks": 20442,
                        "time": 120.24699869999999,
                        "value": 1
                    },
                    {
                        "number": 64,
                        "ticks": 20640,
                        "time": 121.411704,
                        "value": 0
                    },
                    {
                        "number": 64,
                        "ticks": 20677,
                        "time": 121.62935095,
                        "value": 1
                    },
                    {
                        "number": 64,
                        "ticks": 20880,
                        "time": 122.823468,
                        "value": 0
                    },
                    {
                        "number": 64,
                        "ticks": 20914,
                        "time": 123.0234679,
                        "value": 1
                    },
                    {
                        "number": 64,
                        "ticks": 21120,
                        "time": 124.235232,
                        "value": 0
                    },
                    {
                        "number": 64,
                        "ticks": 21157,
                        "time": 124.45287895,
                        "value": 1
                    },
                    {
                        "number": 64,
                        "ticks": 21360,
                        "time": 125.646996,
                        "value": 0
                    },
                    {
                        "number": 64,
                        "ticks": 21398,
                        "time": 125.8705253,
                        "value": 1
                    },
                    {
                        "number": 64,
                        "ticks": 21600,
                        "time": 127.05876,
                        "value": 0
                    },
                    {
                        "number": 64,
                        "ticks": 21637,
                        "time": 127.27640695000001,
                        "value": 1
                    },
                    {
                        "number": 64,
                        "ticks": 21840,
                        "time": 128.470524,
                        "value": 0
                    },
                    {
                        "number": 64,
                        "ticks": 21878,
                        "time": 128.6940533,
                        "value": 1
                    },
                    {
                        "number": 64,
                        "ticks": 22080,
                        "time": 129.882288,
                        "value": 0
                    },
                    {
                        "number": 64,
                        "ticks": 22117,
                        "time": 130.09993495,
                        "value": 1
                    },
                    {
                        "number": 64,
                        "ticks": 22200,
                        "time": 130.58817,
                        "value": 0
                    },
                    {
                        "number": 64,
                        "ticks": 22237,
                        "time": 130.80581695,
                        "value": 1
                    },
                    {
                        "number": 64,
                        "ticks": 22320,
                        "time": 131.294052,
                        "value": 0
                    },
                    {
                        "number": 64,
                        "ticks": 22357,
                        "time": 131.51169895,
                        "value": 1
                    },
                    {
                        "number": 64,
                        "ticks": 22440,
                        "time": 131.999934,
                        "value": 0
                    },
                    {
                        "number": 64,
                        "ticks": 22477,
                        "time": 132.21758095,
                        "value": 1
                    },
                    {
                        "number": 64,
                        "ticks": 22560,
                        "time": 132.705816,
                        "value": 0
                    },
                    {
                        "number": 64,
                        "ticks": 22602,
                        "time": 132.9528747,
                        "value": 1
                    },
                    {
                        "number": 64,
                        "ticks": 22800,
                        "time": 134.11758,
                        "value": 0
                    },
                    {
                        "number": 64,
                        "ticks": 22842,
                        "time": 134.3646387,
                        "value": 1
                    },
                    {
                        "number": 64,
                        "ticks": 23040,
                        "time": 135.529344,
                        "value": 0
                    },
                    {
                        "number": 64,
                        "ticks": 23145,
                        "time": 136.14699075000001,
                        "value": 1
                    },
                    {
                        "number": 64,
                        "ticks": 23280,
                        "time": 136.941108,
                        "value": 0
                    },
                    {
                        "number": 64,
                        "ticks": 23318,
                        "time": 137.1646373,
                        "value": 1
                    },
                    {
                        "number": 64,
                        "ticks": 23520,
                        "time": 138.352872,
                        "value": 0
                    },
                    {
                        "number": 64,
                        "ticks": 23562,
                        "time": 138.5999307,
                        "value": 1
                    },
                    {
                        "number": 64,
                        "ticks": 23760,
                        "time": 139.764636,
                        "value": 0
                    },
                    {
                        "number": 64,
                        "ticks": 23802,
                        "time": 140.0116947,
                        "value": 1
                    },
                    {
                        "number": 64,
                        "ticks": 24000,
                        "time": 141.1764,
                        "value": 0
                    },
                    {
                        "number": 64,
                        "ticks": 24037,
                        "time": 141.39404695000002,
                        "value": 1
                    },
                    {
                        "number": 64,
                        "ticks": 24120,
                        "time": 141.882282,
                        "value": 0
                    },
                    {
                        "number": 64,
                        "ticks": 24157,
                        "time": 142.09992895,
                        "value": 1
                    },
                    {
                        "number": 64,
                        "ticks": 24240,
                        "time": 142.588164,
                        "value": 0
                    },
                    {
                        "number": 64,
                        "ticks": 24277,
                        "time": 142.80581095,
                        "value": 1
                    },
                    {
                        "number": 64,
                        "ticks": 24360,
                        "time": 143.294046,
                        "value": 0
                    },
                    {
                        "number": 64,
                        "ticks": 24397,
                        "time": 143.51169295,
                        "value": 1
                    },
                    {
                        "number": 64,
                        "ticks": 24480,
                        "time": 143.999928,
                        "value": 0
                    },
                    {
                        "number": 64,
                        "ticks": 24522,
                        "time": 144.2469867,
                        "value": 1
                    },
                    {
                        "number": 64,
                        "ticks": 24749,
                        "time": 145.58228015,
                        "value": 0
                    },
                    {
                        "number": 64,
                        "ticks": 25002,
                        "time": 147.0705147,
                        "value": 1
                    },
                    {
                        "number": 64,
                        "ticks": 25200,
                        "time": 148.23522,
                        "value": 0
                    },
                    {
                        "number": 64,
                        "ticks": 25242,
                        "time": 148.4822787,
                        "value": 1
                    },
                    {
                        "number": 64,
                        "ticks": 25440,
                        "time": 149.646984,
                        "value": 0
                    },
                    {
                        "number": 64,
                        "ticks": 25482,
                        "time": 149.8940427,
                        "value": 1
                    },
                    {
                        "number": 64,
                        "ticks": 25680,
                        "time": 151.058748,
                        "value": 0
                    },
                    {
                        "number": 64,
                        "ticks": 25714,
                        "time": 151.2587479,
                        "value": 1
                    },
                    {
                        "number": 64,
                        "ticks": 25920,
                        "time": 152.470512,
                        "value": 0
                    },
                    {
                        "number": 64,
                        "ticks": 25957,
                        "time": 152.68815895,
                        "value": 1
                    },
                    {
                        "number": 64,
                        "ticks": 26160,
                        "time": 153.882276,
                        "value": 0
                    },
                    {
                        "number": 64,
                        "ticks": 26194,
                        "time": 154.0822759,
                        "value": 1
                    },
                    {
                        "number": 64,
                        "ticks": 26400,
                        "time": 155.29404,
                        "value": 0
                    },
                    {
                        "number": 64,
                        "ticks": 26437,
                        "time": 155.51168695,
                        "value": 1
                    },
                    {
                        "number": 64,
                        "ticks": 26520,
                        "time": 155.999922,
                        "value": 0
                    },
                    {
                        "number": 64,
                        "ticks": 26555,
                        "time": 156.20580425,
                        "value": 1
                    },
                    {
                        "number": 64,
                        "ticks": 26595,
                        "time": 156.44109825,
                        "value": 0
                    },
                    {
                        "number": 64,
                        "ticks": 26677,
                        "time": 156.92345095000002,
                        "value": 1
                    },
                    {
                        "number": 64,
                        "ticks": 26880,
                        "time": 158.117568,
                        "value": 0
                    },
                    {
                        "number": 64,
                        "ticks": 26917,
                        "time": 158.33521495,
                        "value": 1
                    },
                    {
                        "number": 64,
                        "ticks": 27120,
                        "time": 159.529332,
                        "value": 0
                    },
                    {
                        "number": 64,
                        "ticks": 27162,
                        "time": 159.7763907,
                        "value": 1
                    },
                    {
                        "number": 64,
                        "ticks": 27360,
                        "time": 160.94109600000002,
                        "value": 0
                    },
                    {
                        "number": 64,
                        "ticks": 27402,
                        "time": 161.18815469999998,
                        "value": 1
                    },
                    {
                        "number": 64,
                        "ticks": 27600,
                        "time": 162.35286,
                        "value": 0
                    },
                    {
                        "number": 64,
                        "ticks": 27642,
                        "time": 162.5999187,
                        "value": 1
                    },
                    {
                        "number": 64,
                        "ticks": 27840,
                        "time": 163.764624,
                        "value": 0
                    },
                    {
                        "number": 64,
                        "ticks": 27882,
                        "time": 164.0116827,
                        "value": 1
                    },
                    {
                        "number": 64,
                        "ticks": 28080,
                        "time": 165.176388,
                        "value": 0
                    },
                    {
                        "number": 64,
                        "ticks": 28122,
                        "time": 165.4234467,
                        "value": 1
                    },
                    {
                        "number": 64,
                        "ticks": 28320,
                        "time": 166.588152,
                        "value": 0
                    },
                    {
                        "number": 64,
                        "ticks": 28357,
                        "time": 166.80579895,
                        "value": 1
                    },
                    {
                        "number": 64,
                        "ticks": 28515,
                        "time": 167.73521025,
                        "value": 0
                    },
                    {
                        "number": 64,
                        "ticks": 28597,
                        "time": 168.21756295,
                        "value": 1
                    },
                    {
                        "number": 64,
                        "ticks": 28800,
                        "time": 169.41168,
                        "value": 0
                    },
                    {
                        "number": 64,
                        "ticks": 28837,
                        "time": 169.62932695,
                        "value": 1
                    },
                    {
                        "number": 64,
                        "ticks": 29280,
                        "time": 172.235208,
                        "value": 0
                    },
                    {
                        "number": 64,
                        "ticks": 29322,
                        "time": 172.4822667,
                        "value": 1
                    },
                    {
                        "number": 64,
                        "ticks": 29520,
                        "time": 173.646972,
                        "value": 0
                    },
                    {
                        "number": 64,
                        "ticks": 29558,
                        "time": 173.8705013,
                        "value": 1
                    },
                    {
                        "number": 64,
                        "ticks": 29760,
                        "time": 175.058736,
                        "value": 0
                    },
                    {
                        "number": 64,
                        "ticks": 29797,
                        "time": 175.27638295,
                        "value": 1
                    },
                    {
                        "number": 64,
                        "ticks": 29880,
                        "time": 175.764618,
                        "value": 0
                    },
                    {
                        "number": 64,
                        "ticks": 29917,
                        "time": 175.98226495,
                        "value": 1
                    },
                    {
                        "number": 64,
                        "ticks": 30000,
                        "time": 176.47050000000002,
                        "value": 0
                    },
                    {
                        "number": 64,
                        "ticks": 30037,
                        "time": 176.68814695,
                        "value": 1
                    },
                    {
                        "number": 64,
                        "ticks": 30120,
                        "time": 177.176382,
                        "value": 0
                    },
                    {
                        "number": 64,
                        "ticks": 30157,
                        "time": 177.39402895,
                        "value": 1
                    },
                    {
                        "number": 64,
                        "ticks": 30240,
                        "time": 177.882264,
                        "value": 0
                    },
                    {
                        "number": 64,
                        "ticks": 30282,
                        "time": 178.1293227,
                        "value": 1
                    },
                    {
                        "number": 64,
                        "ticks": 30509,
                        "time": 179.46461615,
                        "value": 0
                    },
                    {
                        "number": 64,
                        "ticks": 30825,
                        "time": 181.32343875,
                        "value": 1
                    },
                    {
                        "number": 64,
                        "ticks": 30915,
                        "time": 181.85285025,
                        "value": 0
                    },
                    {
                        "number": 64,
                        "ticks": 30997,
                        "time": 182.33520295,
                        "value": 1
                    },
                    {
                        "number": 64,
                        "ticks": 31200,
                        "time": 183.52932,
                        "value": 0
                    },
                    {
                        "number": 64,
                        "ticks": 31237,
                        "time": 183.74696695,
                        "value": 1
                    },
                    {
                        "number": 64,
                        "ticks": 31440,
                        "time": 184.941084,
                        "value": 0
                    },
                    {
                        "number": 64,
                        "ticks": 31478,
                        "time": 185.1646133,
                        "value": 1
                    },
                    {
                        "number": 64,
                        "ticks": 31680,
                        "time": 186.352848,
                        "value": 0
                    },
                    {
                        "number": 64,
                        "ticks": 31722,
                        "time": 186.59990670000002,
                        "value": 1
                    },
                    {
                        "number": 64,
                        "ticks": 31920,
                        "time": 187.764612,
                        "value": 0
                    },
                    {
                        "number": 64,
                        "ticks": 31962,
                        "time": 188.01167070000002,
                        "value": 1
                    },
                    {
                        "number": 64,
                        "ticks": 32160,
                        "time": 189.176376,
                        "value": 0
                    },
                    {
                        "number": 64,
                        "ticks": 32202,
                        "time": 189.42343470000003,
                        "value": 1
                    },
                    {
                        "number": 64,
                        "ticks": 32355,
                        "time": 190.32343425,
                        "value": 0
                    },
                    {
                        "number": 64,
                        "ticks": 32437,
                        "time": 190.80578695,
                        "value": 1
                    },
                    {
                        "number": 64,
                        "ticks": 32640,
                        "time": 191.99990400000002,
                        "value": 0
                    },
                    {
                        "number": 64,
                        "ticks": 32745,
                        "time": 192.61755075,
                        "value": 1
                    },
                    {
                        "number": 64,
                        "ticks": 32880,
                        "time": 193.411668,
                        "value": 0
                    },
                    {
                        "number": 64,
                        "ticks": 32922,
                        "time": 193.65872670000002,
                        "value": 1
                    },
                    {
                        "number": 64,
                        "ticks": 33120,
                        "time": 194.823432,
                        "value": 0
                    },
                    {
                        "number": 64,
                        "ticks": 33225,
                        "time": 195.44107875,
                        "value": 1
                    },
                    {
                        "number": 64,
                        "ticks": 33315,
                        "time": 195.97049025,
                        "value": 0
                    },
                    {
                        "number": 64,
                        "ticks": 33397,
                        "time": 196.45284295000002,
                        "value": 1
                    },
                    {
                        "number": 64,
                        "ticks": 33600,
                        "time": 197.64696,
                        "value": 0
                    },
                    {
                        "number": 64,
                        "ticks": 33637,
                        "time": 197.86460695,
                        "value": 1
                    },
                    {
                        "number": 64,
                        "ticks": 33720,
                        "time": 198.352842,
                        "value": 0
                    },
                    {
                        "number": 64,
                        "ticks": 33757,
                        "time": 198.57048895,
                        "value": 1
                    },
                    {
                        "number": 64,
                        "ticks": 33840,
                        "time": 199.058724,
                        "value": 0
                    },
                    {
                        "number": 64,
                        "ticks": 33877,
                        "time": 199.27637095,
                        "value": 1
                    },
                    {
                        "number": 64,
                        "ticks": 33960,
                        "time": 199.76460600000001,
                        "value": 0
                    },
                    {
                        "number": 64,
                        "ticks": 33997,
                        "time": 199.98225295,
                        "value": 1
                    },
                    {
                        "number": 64,
                        "ticks": 34080,
                        "time": 200.470488,
                        "value": 0
                    },
                    {
                        "number": 64,
                        "ticks": 34122,
                        "time": 200.7175467,
                        "value": 1
                    },
                    {
                        "number": 64,
                        "ticks": 34320,
                        "time": 201.882252,
                        "value": 0
                    },
                    {
                        "number": 64,
                        "ticks": 34358,
                        "time": 202.1057813,
                        "value": 1
                    },
                    {
                        "number": 64,
                        "ticks": 34560,
                        "time": 203.294016,
                        "value": 0
                    },
                    {
                        "number": 64,
                        "ticks": 34597,
                        "time": 203.51166295000002,
                        "value": 1
                    },
                    {
                        "number": 64,
                        "ticks": 34800,
                        "time": 204.70578,
                        "value": 0
                    },
                    {
                        "number": 64,
                        "ticks": 34838,
                        "time": 204.9293093,
                        "value": 1
                    },
                    {
                        "number": 64,
                        "ticks": 35015,
                        "time": 205.97048525000002,
                        "value": 0
                    },
                    {
                        "number": 64,
                        "ticks": 35082,
                        "time": 206.3646027,
                        "value": 1
                    },
                    {
                        "number": 64,
                        "ticks": 35280,
                        "time": 207.52930800000001,
                        "value": 0
                    },
                    {
                        "number": 64,
                        "ticks": 35322,
                        "time": 207.7763667,
                        "value": 1
                    },
                    {
                        "number": 64,
                        "ticks": 35520,
                        "time": 208.941072,
                        "value": 0
                    },
                    {
                        "number": 64,
                        "ticks": 35564,
                        "time": 209.1998954,
                        "value": 1
                    },
                    {
                        "number": 64,
                        "ticks": 35675,
                        "time": 209.85283625000002,
                        "value": 0
                    },
                    {
                        "number": 64,
                        "ticks": 35797,
                        "time": 210.57048295,
                        "value": 1
                    },
                    {
                        "number": 64,
                        "ticks": 36000,
                        "time": 211.7646,
                        "value": 0
                    },
                    {
                        "number": 64,
                        "ticks": 36037,
                        "time": 211.98224695000002,
                        "value": 1
                    },
                    {
                        "number": 64,
                        "ticks": 36240,
                        "time": 213.176364,
                        "value": 0
                    },
                    {
                        "number": 64,
                        "ticks": 36282,
                        "time": 213.42342270000003,
                        "value": 1
                    },
                    {
                        "number": 64,
                        "ticks": 36480,
                        "time": 214.588128,
                        "value": 0
                    },
                    {
                        "number": 64,
                        "ticks": 36518,
                        "time": 214.8116573,
                        "value": 1
                    },
                    {
                        "number": 64,
                        "ticks": 36695,
                        "time": 215.85283325,
                        "value": 0
                    },
                    {
                        "number": 64,
                        "ticks": 36764,
                        "time": 216.2587154,
                        "value": 1
                    },
                    {
                        "number": 64,
                        "ticks": 36949,
                        "time": 217.34695015000003,
                        "value": 0
                    },
                    {
                        "number": 64,
                        "ticks": 36997,
                        "time": 217.62930295,
                        "value": 1
                    },
                    {
                        "number": 64,
                        "ticks": 37155,
                        "time": 218.55871425,
                        "value": 0
                    },
                    {
                        "number": 64,
                        "ticks": 37237,
                        "time": 219.04106695000002,
                        "value": 1
                    },
                    {
                        "number": 64,
                        "ticks": 37440,
                        "time": 220.235184,
                        "value": 0
                    },
                    {
                        "number": 64,
                        "ticks": 37477,
                        "time": 220.45283095,
                        "value": 1
                    },
                    {
                        "number": 64,
                        "ticks": 37560,
                        "time": 220.941066,
                        "value": 0
                    },
                    {
                        "number": 64,
                        "ticks": 37597,
                        "time": 221.15871295,
                        "value": 1
                    },
                    {
                        "number": 64,
                        "ticks": 37680,
                        "time": 221.646948,
                        "value": 0
                    },
                    {
                        "number": 64,
                        "ticks": 37717,
                        "time": 221.86459495,
                        "value": 1
                    },
                    {
                        "number": 64,
                        "ticks": 37800,
                        "time": 222.35283,
                        "value": 0
                    },
                    {
                        "number": 64,
                        "ticks": 37837,
                        "time": 222.57047695,
                        "value": 1
                    },
                    {
                        "number": 64,
                        "ticks": 37920,
                        "time": 223.058712,
                        "value": 0
                    },
                    {
                        "number": 64,
                        "ticks": 38025,
                        "time": 223.67635875,
                        "value": 1
                    },
                    {
                        "number": 64,
                        "ticks": 38160,
                        "time": 224.470476,
                        "value": 0
                    },
                    {
                        "number": 64,
                        "ticks": 38202,
                        "time": 224.71753470000002,
                        "value": 1
                    },
                    {
                        "number": 64,
                        "ticks": 38400,
                        "time": 225.88224,
                        "value": 0
                    },
                    {
                        "number": 64,
                        "ticks": 38505,
                        "time": 226.49988675,
                        "value": 1
                    },
                    {
                        "number": 64,
                        "ticks": 38640,
                        "time": 227.294004,
                        "value": 0
                    },
                    {
                        "number": 64,
                        "ticks": 38682,
                        "time": 227.54106270000003,
                        "value": 1
                    },
                    {
                        "number": 64,
                        "ticks": 38880,
                        "time": 228.705768,
                        "value": 0
                    },
                    {
                        "number": 64,
                        "ticks": 38922,
                        "time": 228.95282670000003,
                        "value": 1
                    },
                    {
                        "number": 64,
                        "ticks": 39120,
                        "time": 230.117532,
                        "value": 0
                    },
                    {
                        "number": 64,
                        "ticks": 39154,
                        "time": 230.31753190000003,
                        "value": 1
                    },
                    {
                        "number": 64,
                        "ticks": 39360,
                        "time": 231.52929600000002,
                        "value": 0
                    },
                    {
                        "number": 64,
                        "ticks": 39397,
                        "time": 231.74694295,
                        "value": 1
                    },
                    {
                        "number": 64,
                        "ticks": 39480,
                        "time": 232.235178,
                        "value": 0
                    },
                    {
                        "number": 64,
                        "ticks": 39517,
                        "time": 232.45282495,
                        "value": 1
                    },
                    {
                        "number": 64,
                        "ticks": 39600,
                        "time": 232.94106,
                        "value": 0
                    },
                    {
                        "number": 64,
                        "ticks": 39637,
                        "time": 233.15870695,
                        "value": 1
                    },
                    {
                        "number": 64,
                        "ticks": 39720,
                        "time": 233.646942,
                        "value": 0
                    },
                    {
                        "number": 64,
                        "ticks": 39757,
                        "time": 233.86458895,
                        "value": 1
                    },
                    {
                        "number": 64,
                        "ticks": 39840,
                        "time": 234.352824,
                        "value": 0
                    },
                    {
                        "number": 64,
                        "ticks": 39871,
                        "time": 234.53517685,
                        "value": 1
                    },
                    {
                        "number": 64,
                        "ticks": 40320,
                        "time": 237.176352,
                        "value": 0
                    },
                    {
                        "number": 64,
                        "ticks": 40362,
                        "time": 237.4234107,
                        "value": 1
                    },
                    {
                        "number": 64,
                        "ticks": 40560,
                        "time": 238.588116,
                        "value": 0
                    },
                    {
                        "number": 64,
                        "ticks": 40604,
                        "time": 238.8469394,
                        "value": 1
                    },
                    {
                        "number": 64,
                        "ticks": 40789,
                        "time": 239.93517415000002,
                        "value": 0
                    },
                    {
                        "number": 64,
                        "ticks": 40905,
                        "time": 240.61752675,
                        "value": 1
                    },
                    {
                        "number": 64,
                        "ticks": 40995,
                        "time": 241.14693825,
                        "value": 0
                    },
                    {
                        "number": 64,
                        "ticks": 41077,
                        "time": 241.62929095,
                        "value": 1
                    },
                    {
                        "number": 64,
                        "ticks": 41280,
                        "time": 242.823408,
                        "value": 0
                    },
                    {
                        "number": 64,
                        "ticks": 41317,
                        "time": 243.04105495000002,
                        "value": 1
                    },
                    {
                        "number": 64,
                        "ticks": 41520,
                        "time": 244.235172,
                        "value": 0
                    },
                    {
                        "number": 64,
                        "ticks": 41558,
                        "time": 244.4587013,
                        "value": 1
                    },
                    {
                        "number": 64,
                        "ticks": 41760,
                        "time": 245.646936,
                        "value": 0
                    },
                    {
                        "number": 64,
                        "ticks": 41797,
                        "time": 245.86458295,
                        "value": 1
                    },
                    {
                        "number": 64,
                        "ticks": 41880,
                        "time": 246.352818,
                        "value": 0
                    },
                    {
                        "number": 64,
                        "ticks": 41917,
                        "time": 246.57046495,
                        "value": 1
                    },
                    {
                        "number": 64,
                        "ticks": 42000,
                        "time": 247.05870000000002,
                        "value": 0
                    },
                    {
                        "number": 64,
                        "ticks": 42034,
                        "time": 247.2586999,
                        "value": 1
                    },
                    {
                        "number": 64,
                        "ticks": 42240,
                        "time": 248.470464,
                        "value": 0
                    },
                    {
                        "number": 64,
                        "ticks": 42282,
                        "time": 248.71752270000002,
                        "value": 1
                    },
                    {
                        "number": 64,
                        "ticks": 42480,
                        "time": 249.882228,
                        "value": 0
                    },
                    {
                        "number": 64,
                        "ticks": 42522,
                        "time": 250.12928670000002,
                        "value": 1
                    },
                    {
                        "number": 64,
                        "ticks": 42720,
                        "time": 251.293992,
                        "value": 0
                    },
                    {
                        "number": 64,
                        "ticks": 42757,
                        "time": 251.51163895000002,
                        "value": 1
                    },
                    {
                        "number": 64,
                        "ticks": 42960,
                        "time": 252.705756,
                        "value": 0
                    },
                    {
                        "number": 64,
                        "ticks": 42998,
                        "time": 252.9292853,
                        "value": 1
                    },
                    {
                        "number": 64,
                        "ticks": 43200,
                        "time": 254.11752,
                        "value": 0
                    },
                    {
                        "number": 64,
                        "ticks": 43242,
                        "time": 254.3645787,
                        "value": 1
                    },
                    {
                        "number": 64,
                        "ticks": 43440,
                        "time": 255.529284,
                        "value": 0
                    },
                    {
                        "number": 64,
                        "ticks": 43478,
                        "time": 255.7528133,
                        "value": 1
                    },
                    {
                        "number": 64,
                        "ticks": 43655,
                        "time": 256.79398925000004,
                        "value": 0
                    },
                    {
                        "number": 64,
                        "ticks": 43722,
                        "time": 257.1881067,
                        "value": 1
                    },
                    {
                        "number": 64,
                        "ticks": 43920,
                        "time": 258.35281200000003,
                        "value": 0
                    },
                    {
                        "number": 64,
                        "ticks": 43954,
                        "time": 258.5528119,
                        "value": 1
                    },
                    {
                        "number": 64,
                        "ticks": 44160,
                        "time": 259.764576,
                        "value": 0
                    },
                    {
                        "number": 64,
                        "ticks": 44198,
                        "time": 259.9881053,
                        "value": 1
                    },
                    {
                        "number": 64,
                        "ticks": 44375,
                        "time": 261.02928125,
                        "value": 0
                    },
                    {
                        "number": 64,
                        "ticks": 44450,
                        "time": 261.4704575,
                        "value": 1
                    },
                    {
                        "number": 64,
                        "ticks": 44630,
                        "time": 262.5292805,
                        "value": 0
                    },
                    {
                        "number": 64,
                        "ticks": 44682,
                        "time": 262.8351627,
                        "value": 1
                    },
                    {
                        "number": 64,
                        "ticks": 44835,
                        "time": 263.73516225000003,
                        "value": 0
                    },
                    {
                        "number": 64,
                        "ticks": 44917,
                        "time": 264.21751495,
                        "value": 1
                    },
                    {
                        "number": 64,
                        "ticks": 45120,
                        "time": 265.411632,
                        "value": 0
                    },
                    {
                        "number": 64,
                        "ticks": 45157,
                        "time": 265.62927895,
                        "value": 1
                    },
                    {
                        "number": 64,
                        "ticks": 45240,
                        "time": 266.117514,
                        "value": 0
                    },
                    {
                        "number": 64,
                        "ticks": 45277,
                        "time": 266.33516095,
                        "value": 1
                    },
                    {
                        "number": 64,
                        "ticks": 45360,
                        "time": 266.823396,
                        "value": 0
                    },
                    {
                        "number": 64,
                        "ticks": 45397,
                        "time": 267.04104295,
                        "value": 1
                    },
                    {
                        "number": 64,
                        "ticks": 45480,
                        "time": 267.529278,
                        "value": 0
                    },
                    {
                        "number": 64,
                        "ticks": 45517,
                        "time": 267.74692495,
                        "value": 1
                    },
                    {
                        "number": 64,
                        "ticks": 45600,
                        "time": 268.23516,
                        "value": 0
                    },
                    {
                        "number": 64,
                        "ticks": 45642,
                        "time": 268.48221870000003,
                        "value": 1
                    },
                    {
                        "number": 64,
                        "ticks": 45869,
                        "time": 269.81751215,
                        "value": 0
                    },
                    {
                        "number": 64,
                        "ticks": 46117,
                        "time": 271.27633495000003,
                        "value": 1
                    },
                    {
                        "number": 64,
                        "ticks": 46967,
                        "time": 276.27633245,
                        "value": 0
                    },
                    {
                        "number": 64,
                        "ticks": 47040,
                        "time": 276.705744,
                        "value": 0
                    }
                ]
            },
            "pitchBends": [],
            "instrument": {
                "family": "guitar",
                "number": 26,
                "name": "electric guitar (jazz)"
            },
            "name": "Guitar  (BB)",
            "notes": [
                {
                    "duration": 0.352941,
                    "durationTicks": 60,
                    "midi": 54,
                    "name": "F#3",
                    "ticks": 0,
                    "time": 0,
                    "velocity": 0.4645669291338583
                },
                {
                    "duration": 0.352941,
                    "durationTicks": 60,
                    "midi": 49,
                    "name": "C#3",
                    "ticks": 0,
                    "time": 0,
                    "velocity": 0.3700787401574803
                },
                {
                    "duration": 0.5294115,
                    "durationTicks": 90,
                    "midi": 58,
                    "name": "A#3",
                    "ticks": 0,
                    "time": 0,
                    "velocity": 0.33070866141732286
                },
                {
                    "duration": 0.35294099999999995,
                    "durationTicks": 60,
                    "midi": 56,
                    "name": "G#3",
                    "ticks": 240,
                    "time": 1.411764,
                    "velocity": 0.4881889763779528
                },
                {
                    "duration": 0.35294099999999995,
                    "durationTicks": 60,
                    "midi": 59,
                    "name": "B3",
                    "ticks": 240,
                    "time": 1.411764,
                    "velocity": 0.4881889763779528
                },
                {
                    "duration": 0.35294099999999995,
                    "durationTicks": 60,
                    "midi": 50,
                    "name": "D3",
                    "ticks": 240,
                    "time": 1.411764,
                    "velocity": 0.31496062992125984
                },
                {
                    "duration": 1.2352934999999998,
                    "durationTicks": 210,
                    "midi": 46,
                    "name": "A#2",
                    "ticks": 240,
                    "time": 1.411764,
                    "velocity": 0.33070866141732286
                },
                {
                    "duration": 0.17647049999999975,
                    "durationTicks": 30,
                    "midi": 56,
                    "name": "G#3",
                    "ticks": 360,
                    "time": 2.117646,
                    "velocity": 0.4015748031496063
                },
                {
                    "duration": 0.35294099999999995,
                    "durationTicks": 60,
                    "midi": 50,
                    "name": "D3",
                    "ticks": 360,
                    "time": 2.117646,
                    "velocity": 0.3228346456692913
                },
                {
                    "duration": 0.35294099999999995,
                    "durationTicks": 60,
                    "midi": 59,
                    "name": "B3",
                    "ticks": 360,
                    "time": 2.117646,
                    "velocity": 0.36220472440944884
                },
                {
                    "duration": 0.1764705000000002,
                    "durationTicks": 30,
                    "midi": 54,
                    "name": "F#3",
                    "ticks": 480,
                    "time": 2.823528,
                    "velocity": 0.4645669291338583
                },
                {
                    "duration": 0.35294099999999995,
                    "durationTicks": 60,
                    "midi": 58,
                    "name": "A#3",
                    "ticks": 480,
                    "time": 2.823528,
                    "velocity": 0.3543307086614173
                },
                {
                    "duration": 0.35294099999999995,
                    "durationTicks": 60,
                    "midi": 49,
                    "name": "C#3",
                    "ticks": 480,
                    "time": 2.823528,
                    "velocity": 0.3858267716535433
                },
                {
                    "duration": 1.2352934999999996,
                    "durationTicks": 210,
                    "midi": 39,
                    "name": "D#2",
                    "ticks": 480,
                    "time": 2.823528,
                    "velocity": 0.41732283464566927
                },
                {
                    "duration": 0.35294099999999995,
                    "durationTicks": 60,
                    "midi": 54,
                    "name": "F#3",
                    "ticks": 600,
                    "time": 3.52941,
                    "velocity": 0.49606299212598426
                },
                {
                    "duration": 0.35294099999999995,
                    "durationTicks": 60,
                    "midi": 49,
                    "name": "C#3",
                    "ticks": 600,
                    "time": 3.52941,
                    "velocity": 0.3543307086614173
                },
                {
                    "duration": 0.35294099999999995,
                    "durationTicks": 60,
                    "midi": 58,
                    "name": "A#3",
                    "ticks": 600,
                    "time": 3.52941,
                    "velocity": 0.4566929133858268
                },
                {
                    "duration": 0.17647049999999975,
                    "durationTicks": 30,
                    "midi": 60,
                    "name": "C4",
                    "ticks": 720,
                    "time": 4.235292,
                    "velocity": 0.4645669291338583
                },
                {
                    "duration": 0.3529409999999995,
                    "durationTicks": 60,
                    "midi": 63,
                    "name": "D#4",
                    "ticks": 720,
                    "time": 4.235292,
                    "velocity": 0.3543307086614173
                },
                {
                    "duration": 0.3529409999999995,
                    "durationTicks": 60,
                    "midi": 54,
                    "name": "F#3",
                    "ticks": 720,
                    "time": 4.235292,
                    "velocity": 0.3858267716535433
                },
                {
                    "duration": 1.2352935,
                    "durationTicks": 210,
                    "midi": 44,
                    "name": "G#2",
                    "ticks": 720,
                    "time": 4.235292,
                    "velocity": 0.41732283464566927
                },
                {
                    "duration": 0.3529409999999995,
                    "durationTicks": 60,
                    "midi": 60,
                    "name": "C4",
                    "ticks": 840,
                    "time": 4.941174,
                    "velocity": 0.49606299212598426
                },
                {
                    "duration": 0.3529409999999995,
                    "durationTicks": 60,
                    "midi": 54,
                    "name": "F#3",
                    "ticks": 840,
                    "time": 4.941174,
                    "velocity": 0.3543307086614173
                },
                {
                    "duration": 0.3529409999999995,
                    "durationTicks": 60,
                    "midi": 63,
                    "name": "D#4",
                    "ticks": 840,
                    "time": 4.941174,
                    "velocity": 0.4566929133858268
                },
                {
                    "duration": 0.3529410000000004,
                    "durationTicks": 60,
                    "midi": 60,
                    "name": "C4",
                    "ticks": 960,
                    "time": 5.647056,
                    "velocity": 0.4645669291338583
                },
                {
                    "duration": 0.3529410000000004,
                    "durationTicks": 60,
                    "midi": 53,
                    "name": "F3",
                    "ticks": 960,
                    "time": 5.647056,
                    "velocity": 0.3700787401574803
                },
                {
                    "duration": 0.5294115000000001,
                    "durationTicks": 90,
                    "midi": 63,
                    "name": "D#4",
                    "ticks": 960,
                    "time": 5.647056,
                    "velocity": 0.33070866141732286
                },
                {
                    "duration": 0.3529410000000004,
                    "durationTicks": 60,
                    "midi": 58,
                    "name": "A#3",
                    "ticks": 1200,
                    "time": 7.05882,
                    "velocity": 0.5196850393700787
                },
                {
                    "duration": 0.3529410000000004,
                    "durationTicks": 60,
                    "midi": 52,
                    "name": "E3",
                    "ticks": 1200,
                    "time": 7.05882,
                    "velocity": 0.3464566929133858
                },
                {
                    "duration": 0.5294115000000001,
                    "durationTicks": 90,
                    "midi": 63,
                    "name": "D#4",
                    "ticks": 1200,
                    "time": 7.05882,
                    "velocity": 0.5039370078740157
                },
                {
                    "duration": 1.2352935,
                    "durationTicks": 210,
                    "midi": 42,
                    "name": "F#2",
                    "ticks": 1200,
                    "time": 7.05882,
                    "velocity": 0.4330708661417323
                },
                {
                    "duration": 0.3529410000000013,
                    "durationTicks": 60,
                    "midi": 63,
                    "name": "D#4",
                    "ticks": 1380,
                    "time": 8.117643,
                    "velocity": 0.4094488188976378
                },
                {
                    "duration": 0.3529410000000013,
                    "durationTicks": 60,
                    "midi": 52,
                    "name": "E3",
                    "ticks": 1380,
                    "time": 8.117643,
                    "velocity": 0.3543307086614173
                },
                {
                    "duration": 0.3529410000000013,
                    "durationTicks": 60,
                    "midi": 58,
                    "name": "A#3",
                    "ticks": 1380,
                    "time": 8.117643,
                    "velocity": 0.5118110236220472
                },
                {
                    "duration": 0.3529409999999995,
                    "durationTicks": 60,
                    "midi": 56,
                    "name": "G#3",
                    "ticks": 1440,
                    "time": 8.470584,
                    "velocity": 0.4645669291338583
                },
                {
                    "duration": 0.3529409999999995,
                    "durationTicks": 60,
                    "midi": 51,
                    "name": "D#3",
                    "ticks": 1440,
                    "time": 8.470584,
                    "velocity": 0.3700787401574803
                },
                {
                    "duration": 0.5294115000000001,
                    "durationTicks": 90,
                    "midi": 60,
                    "name": "C4",
                    "ticks": 1440,
                    "time": 8.470584,
                    "velocity": 0.33070866141732286
                },
                {
                    "duration": 0.17647050000000064,
                    "durationTicks": 30,
                    "midi": 55,
                    "name": "G3",
                    "ticks": 1680,
                    "time": 9.882348,
                    "velocity": 0.4645669291338583
                },
                {
                    "duration": 0.3529409999999995,
                    "durationTicks": 60,
                    "midi": 58,
                    "name": "A#3",
                    "ticks": 1680,
                    "time": 9.882348,
                    "velocity": 0.3543307086614173
                },
                {
                    "duration": 0.3529409999999995,
                    "durationTicks": 60,
                    "midi": 49,
                    "name": "C#3",
                    "ticks": 1680,
                    "time": 9.882348,
                    "velocity": 0.3858267716535433
                },
                {
                    "duration": 1.2352934999999992,
                    "durationTicks": 210,
                    "midi": 40,
                    "name": "E2",
                    "ticks": 1680,
                    "time": 9.882348,
                    "velocity": 0.41732283464566927
                },
                {
                    "duration": 0.3529410000000013,
                    "durationTicks": 60,
                    "midi": 55,
                    "name": "G3",
                    "ticks": 1800,
                    "time": 10.58823,
                    "velocity": 0.49606299212598426
                },
                {
                    "duration": 0.3529410000000013,
                    "durationTicks": 60,
                    "midi": 49,
                    "name": "C#3",
                    "ticks": 1800,
                    "time": 10.58823,
                    "velocity": 0.3543307086614173
                },
                {
                    "duration": 0.3529410000000013,
                    "durationTicks": 60,
                    "midi": 58,
                    "name": "A#3",
                    "ticks": 1800,
                    "time": 10.58823,
                    "velocity": 0.4566929133858268
                }
            ],
            "endOfTrackTicks": 47041
        },
        {
            "channel": 0,
            "controlChanges": {
                "0": [
                    {
                        "number": 0,
                        "ticks": 0,
                        "time": 0,
                        "value": 0
                    }
                ],
                "7": [
                    {
                        "number": 7,
                        "ticks": 0,
                        "time": 0,
                        "value": 0.7086614173228346
                    }
                ],
                "10": [
                    {
                        "number": 10,
                        "ticks": 0,
                        "time": 0,
                        "value": 0.5039370078740157
                    }
                ],
                "64": [
                    {
                        "number": 64,
                        "ticks": 47040,
                        "time": 276.705744,
                        "value": 0
                    }
                ]
            },
            "pitchBends": [],
            "instrument": {
                "family": "brass",
                "number": 61,
                "name": "brass section"
            },
            "name": "Brass (BB)",
            "notes": [],
            "endOfTrackTicks": 47041
        },
        {
            "channel": 5,
            "controlChanges": {
                "0": [
                    {
                        "number": 0,
                        "ticks": 0,
                        "time": 0,
                        "value": 0.06299212598425197
                    }
                ],
                "7": [
                    {
                        "number": 7,
                        "ticks": 0,
                        "time": 0,
                        "value": 0.7874015748031497
                    }
                ],
                "10": [
                    {
                        "number": 10,
                        "ticks": 0,
                        "time": 0,
                        "value": 0.5039370078740157
                    }
                ]
            },
            "pitchBends": [],
            "instrument": {
                "family": "reed",
                "number": 66,
                "name": "tenor sax"
            },
            "name": "Melody  (BB)",
            "notes": [
                {
                    "duration": 0.35294099999999995,
                    "durationTicks": 60,
                    "midi": 51,
                    "name": "D#3",
                    "ticks": 90,
                    "time": 0.5294115,
                    "velocity": 0.7716535433070866
                },
                {
                    "duration": 0.35294100000000006,
                    "durationTicks": 60,
                    "midi": 53,
                    "name": "F3",
                    "ticks": 150,
                    "time": 0.8823525,
                    "velocity": 0.6141732283464567
                },
                {
                    "duration": 0.17647049999999997,
                    "durationTicks": 30,
                    "midi": 51,
                    "name": "D#3",
                    "ticks": 210,
                    "time": 1.2352935,
                    "velocity": 0.6456692913385826
                },
                {
                    "duration": 0.8823524999999999,
                    "durationTicks": 150,
                    "midi": 53,
                    "name": "F3",
                    "ticks": 240,
                    "time": 1.411764,
                    "velocity": 0.6299212598425197
                },
                {
                    "duration": 0.5294115000000001,
                    "durationTicks": 90,
                    "midi": 51,
                    "name": "D#3",
                    "ticks": 390,
                    "time": 2.2941165,
                    "velocity": 0.6299212598425197
                },
                {
                    "duration": 0.35294099999999995,
                    "durationTicks": 60,
                    "midi": 58,
                    "name": "A#3",
                    "ticks": 480,
                    "time": 2.823528,
                    "velocity": 0.5669291338582677
                },
                {
                    "duration": 2.4705869999999996,
                    "durationTicks": 420,
                    "midi": 58,
                    "name": "A#3",
                    "ticks": 570,
                    "time": 3.3529395,
                    "velocity": 0.7165354330708661
                },
                {
                    "duration": 0.3529409999999995,
                    "durationTicks": 60,
                    "midi": 56,
                    "name": "G#3",
                    "ticks": 1050,
                    "time": 6.1764675,
                    "velocity": 0.7716535433070866
                },
                {
                    "duration": 0.3529410000000004,
                    "durationTicks": 60,
                    "midi": 58,
                    "name": "A#3",
                    "ticks": 1110,
                    "time": 6.5294085,
                    "velocity": 0.6692913385826772
                },
                {
                    "duration": 0.17647049999999975,
                    "durationTicks": 30,
                    "midi": 56,
                    "name": "G#3",
                    "ticks": 1170,
                    "time": 6.8823495,
                    "velocity": 0.6456692913385826
                },
                {
                    "duration": 0.8823525000000005,
                    "durationTicks": 150,
                    "midi": 58,
                    "name": "A#3",
                    "ticks": 1200,
                    "time": 7.05882,
                    "velocity": 0.7007874015748031
                },
                {
                    "duration": 0.3529410000000013,
                    "durationTicks": 60,
                    "midi": 56,
                    "name": "G#3",
                    "ticks": 1380,
                    "time": 8.117643,
                    "velocity": 0.6141732283464567
                },
                {
                    "duration": 0.705881999999999,
                    "durationTicks": 120,
                    "midi": 63,
                    "name": "D#4",
                    "ticks": 1440,
                    "time": 8.470584,
                    "velocity": 0.6692913385826772
                },
                {
                    "duration": 0.7058820000000008,
                    "durationTicks": 120,
                    "midi": 61,
                    "name": "C#4",
                    "ticks": 1560,
                    "time": 9.176466,
                    "velocity": 0.6692913385826772
                },
                {
                    "duration": 0.5294115000000001,
                    "durationTicks": 90,
                    "midi": 60,
                    "name": "C4",
                    "ticks": 1680,
                    "time": 9.882348,
                    "velocity": 0.6692913385826772
                },
                {
                    "duration": 1.0588230000000003,
                    "durationTicks": 180,
                    "midi": 58,
                    "name": "A#3",
                    "ticks": 1770,
                    "time": 10.4117595,
                    "velocity": 0.7165354330708661
                }
            ],
            "endOfTrackTicks": 1951
        },
        {
            "channel": 0,
            "controlChanges": {
                "0": [
                    {
                        "number": 0,
                        "ticks": 0,
                        "time": 0,
                        "value": 0.06299212598425197
                    }
                ],
                "7": [
                    {
                        "number": 7,
                        "ticks": 0,
                        "time": 0,
                        "value": 0.7874015748031497
                    }
                ],
                "10": [
                    {
                        "number": 10,
                        "ticks": 0,
                        "time": 0,
                        "value": 0.5039370078740157
                    }
                ]
            },
            "pitchBends": [],
            "instrument": {
                "family": "reed",
                "number": 66,
                "name": "tenor sax"
            },
            "name": "Soloist (BB)",
            "notes": [],
            "endOfTrackTicks": 1
        }
    ]
}