export const twentiethJSON = { "header": { "keySignatures": [{ "key": "C", "scale": "major", "ticks": 0 }, { "key": "Eb", "scale": "major", "ticks": 7200 }, { "key": "Ab", "scale": "major", "ticks": 9120 }, { "key": "Db", "scale": "major", "ticks": 11040 }, { "key": "C", "scale": "major", "ticks": 12960 }, { "key": "Bb", "scale": "major", "ticks": 27360 }, { "key": "Ab", "scale": "major", "ticks": 29280 }, { "key": "C", "scale": "major", "ticks": 31200 }], "meta": [], "name": "", "ppq": 120, "tempos": [{ "bpm": 224.00011946673038, "ticks": 0 }], "timeSignatures": [{ "ticks": 0, "timeSignature": [4, 4], "measures": 0 }] }, "tracks": [{ "channel": 0, "controlChanges": { "7": [{ "number": 7, "ticks": 0, "time": 0, "value": 0.8267716535433071 }], "10": [{ "number": 10, "ticks": 0, "time": 0, "value": 0.007874015748031496 }], "91": [{ "number": 91, "ticks": 480, "time": 1.071428, "value": 0.5039370078740157 }] }, "pitchBends": [], "instrument": { "family": "brass", "number": 61, "name": "brass section" }, "name": "tpt", "notes": [], "endOfTrackTicks": 481 }, { "channel": 0, "controlChanges": { "7": [{ "number": 7, "ticks": 0, "time": 0, "value": 0.8267716535433071 }], "10": [{ "number": 10, "ticks": 0, "time": 0, "value": 0.14960629921259844 }], "91": [{ "number": 91, "ticks": 480, "time": 1.071428, "value": 0.5039370078740157 }] }, "pitchBends": [], "instrument": { "family": "brass", "number": 61, "name": "brass section" }, "name": "tpt", "notes": [], "endOfTrackTicks": 481 }, { "channel": 0, "controlChanges": { "7": [{ "number": 7, "ticks": 0, "time": 0, "value": 0.7874015748031497 }], "10": [{ "number": 10, "ticks": 0, "time": 0, "value": 0.25196850393700787 }], "91": [{ "number": 91, "ticks": 480, "time": 1.071428, "value": 0.5039370078740157 }] }, "pitchBends": [], "instrument": { "family": "synth lead", "number": 81, "name": "lead 2 (sawtooth)" }, "name": "tpt", "notes": [], "endOfTrackTicks": 481 }, { "channel": 0, "controlChanges": { "7": [{ "number": 7, "ticks": 0, "time": 0, "value": 0.7874015748031497 }], "10": [{ "number": 10, "ticks": 0, "time": 0, "value": 0.48031496062992124 }], "91": [{ "number": 91, "ticks": 480, "time": 1.071428, "value": 0.5039370078740157 }] }, "pitchBends": [], "instrument": { "family": "synth lead", "number": 81, "name": "lead 2 (sawtooth)" }, "name": "tbn", "notes": [], "endOfTrackTicks": 481 }, { "channel": 4, "controlChanges": { "7": [{ "number": 7, "ticks": 0, "time": 0, "value": 0.7874015748031497 }], "10": [{ "number": 10, "ticks": 0, "time": 0, "value": 0.6299212598425197 }], "91": [{ "number": 91, "ticks": 480, "time": 1.071428, "value": 0.5039370078740157 }] }, "pitchBends": [], "instrument": { "family": "brass", "number": 61, "name": "brass section" }, "name": "tbn", "notes": [{ "duration": 0.1339285, "durationTicks": 60, "midi": 62, "name": "D4", "ticks": 0, "time": 0, "velocity": 1 }, { "duration": 0.06696425, "durationTicks": 30, "midi": 63, "name": "D#4", "ticks": 120, "time": 0.267857, "velocity": 1 }, { "duration": 0.1339285, "durationTicks": 60, "midi": 62, "name": "D4", "ticks": 240, "time": 0.535714, "velocity": 1 }, { "duration": 0.1339285, "durationTicks": 60, "midi": 66, "name": "F#4", "ticks": 420, "time": 0.9374995, "velocity": 1 }, { "duration": 0.13392850000000012, "durationTicks": 60, "midi": 69, "name": "A4", "ticks": 480, "time": 1.071428, "velocity": 1 }, { "duration": 0.1339284999999999, "durationTicks": 60, "midi": 62, "name": "D4", "ticks": 600, "time": 1.339285, "velocity": 1 }, { "duration": 0.13392850000000012, "durationTicks": 60, "midi": 62, "name": "D4", "ticks": 660, "time": 1.4732135, "velocity": 1 }, { "duration": 0.4017854999999999, "durationTicks": 180, "midi": 63, "name": "D#4", "ticks": 780, "time": 1.7410705000000002, "velocity": 1 }, { "duration": 0.13392850000000012, "durationTicks": 60, "midi": 62, "name": "D4", "ticks": 960, "time": 2.142856, "velocity": 1 }, { "duration": 0.13392849999999967, "durationTicks": 60, "midi": 63, "name": "D#4", "ticks": 1080, "time": 2.4107130000000003, "velocity": 1 }, { "duration": 0.13392850000000012, "durationTicks": 60, "midi": 62, "name": "D4", "ticks": 1200, "time": 2.67857, "velocity": 1 }, { "duration": 0.13392850000000012, "durationTicks": 60, "midi": 66, "name": "F#4", "ticks": 1380, "time": 3.0803555, "velocity": 1 }, { "duration": 0.13392850000000012, "durationTicks": 60, "midi": 71, "name": "B4", "ticks": 1440, "time": 3.214284, "velocity": 1 }, { "duration": 0.13392849999999967, "durationTicks": 60, "midi": 70, "name": "A#4", "ticks": 1560, "time": 3.4821410000000004, "velocity": 1 }, { "duration": 0.13392850000000012, "durationTicks": 60, "midi": 70, "name": "A#4", "ticks": 1620, "time": 3.6160695, "velocity": 1 }, { "duration": 0.4017854999999999, "durationTicks": 180, "midi": 69, "name": "A4", "ticks": 1740, "time": 3.8839265000000003, "velocity": 1 }], "endOfTrackTicks": 1921 }, { "channel": 5, "controlChanges": { "7": [{ "number": 7, "ticks": 0, "time": 0, "value": 0.7874015748031497 }], "10": [{ "number": 10, "ticks": 0, "time": 0, "value": 0.7795275590551181 }], "91": [{ "number": 91, "ticks": 480, "time": 1.071428, "value": 0.5039370078740157 }] }, "pitchBends": [], "instrument": { "family": "synth lead", "number": 81, "name": "lead 2 (sawtooth)" }, "name": "sax", "notes": [{ "duration": 0.1339285, "durationTicks": 60, "midi": 50, "name": "D3", "ticks": 0, "time": 0, "velocity": 1 }, { "duration": 0.06696425, "durationTicks": 30, "midi": 51, "name": "D#3", "ticks": 120, "time": 0.267857, "velocity": 1 }, { "duration": 0.1339285, "durationTicks": 60, "midi": 50, "name": "D3", "ticks": 240, "time": 0.535714, "velocity": 1 }, { "duration": 0.1339285, "durationTicks": 60, "midi": 54, "name": "F#3", "ticks": 420, "time": 0.9374995, "velocity": 1 }, { "duration": 0.13392850000000012, "durationTicks": 60, "midi": 57, "name": "A3", "ticks": 480, "time": 1.071428, "velocity": 1 }, { "duration": 0.1339284999999999, "durationTicks": 60, "midi": 50, "name": "D3", "ticks": 600, "time": 1.339285, "velocity": 1 }, { "duration": 0.13392850000000012, "durationTicks": 60, "midi": 50, "name": "D3", "ticks": 660, "time": 1.4732135, "velocity": 1 }, { "duration": 0.4017854999999999, "durationTicks": 180, "midi": 51, "name": "D#3", "ticks": 780, "time": 1.7410705000000002, "velocity": 1 }, { "duration": 0.13392850000000012, "durationTicks": 60, "midi": 50, "name": "D3", "ticks": 960, "time": 2.142856, "velocity": 1 }, { "duration": 0.13392849999999967, "durationTicks": 60, "midi": 51, "name": "D#3", "ticks": 1080, "time": 2.4107130000000003, "velocity": 1 }, { "duration": 0.13392850000000012, "durationTicks": 60, "midi": 50, "name": "D3", "ticks": 1200, "time": 2.67857, "velocity": 1 }, { "duration": 0.13392850000000012, "durationTicks": 60, "midi": 54, "name": "F#3", "ticks": 1380, "time": 3.0803555, "velocity": 1 }, { "duration": 0.13392850000000012, "durationTicks": 60, "midi": 59, "name": "B3", "ticks": 1440, "time": 3.214284, "velocity": 1 }, { "duration": 0.13392849999999967, "durationTicks": 60, "midi": 58, "name": "A#3", "ticks": 1560, "time": 3.4821410000000004, "velocity": 1 }, { "duration": 0.13392850000000012, "durationTicks": 60, "midi": 58, "name": "A#3", "ticks": 1620, "time": 3.6160695, "velocity": 1 }, { "duration": 0.4017854999999999, "durationTicks": 180, "midi": 57, "name": "A3", "ticks": 1740, "time": 3.8839265000000003, "velocity": 1 }], "endOfTrackTicks": 1921 }, { "channel": 6, "controlChanges": { "7": [{ "number": 7, "ticks": 0, "time": 0, "value": 0.7874015748031497 }], "10": [{ "number": 10, "ticks": 0, "time": 0, "value": 1 }], "91": [{ "number": 91, "ticks": 480, "time": 1.071428, "value": 0.5039370078740157 }] }, "pitchBends": [], "instrument": { "family": "brass", "number": 61, "name": "brass section" }, "name": "sax", "notes": [{ "duration": 0.1339285, "durationTicks": 60, "midi": 50, "name": "D3", "ticks": 0, "time": 0, "velocity": 1 }, { "duration": 0.1339285, "durationTicks": 60, "midi": 51, "name": "D#3", "ticks": 120, "time": 0.267857, "velocity": 1 }, { "duration": 0.1339285, "durationTicks": 60, "midi": 50, "name": "D3", "ticks": 240, "time": 0.535714, "velocity": 1 }, { "duration": 0.1339285, "durationTicks": 60, "midi": 54, "name": "F#3", "ticks": 420, "time": 0.9374995, "velocity": 1 }, { "duration": 0.13392850000000012, "durationTicks": 60, "midi": 57, "name": "A3", "ticks": 480, "time": 1.071428, "velocity": 1 }, { "duration": 0.1339284999999999, "durationTicks": 60, "midi": 50, "name": "D3", "ticks": 600, "time": 1.339285, "velocity": 1 }, { "duration": 0.13392850000000012, "durationTicks": 60, "midi": 50, "name": "D3", "ticks": 660, "time": 1.4732135, "velocity": 1 }, { "duration": 0.4017854999999999, "durationTicks": 180, "midi": 51, "name": "D#3", "ticks": 780, "time": 1.7410705000000002, "velocity": 1 }, { "duration": 0.13392850000000012, "durationTicks": 60, "midi": 50, "name": "D3", "ticks": 960, "time": 2.142856, "velocity": 1 }, { "duration": 0.13392849999999967, "durationTicks": 60, "midi": 51, "name": "D#3", "ticks": 1080, "time": 2.4107130000000003, "velocity": 1 }, { "duration": 0.13392850000000012, "durationTicks": 60, "midi": 50, "name": "D3", "ticks": 1200, "time": 2.67857, "velocity": 1 }, { "duration": 0.13392850000000012, "durationTicks": 60, "midi": 54, "name": "F#3", "ticks": 1380, "time": 3.0803555, "velocity": 1 }, { "duration": 0.13392850000000012, "durationTicks": 60, "midi": 59, "name": "B3", "ticks": 1440, "time": 3.214284, "velocity": 1 }, { "duration": 0.13392849999999967, "durationTicks": 60, "midi": 58, "name": "A#3", "ticks": 1560, "time": 3.4821410000000004, "velocity": 1 }, { "duration": 0.13392850000000012, "durationTicks": 60, "midi": 58, "name": "A#3", "ticks": 1620, "time": 3.6160695, "velocity": 1 }, { "duration": 0.4017854999999999, "durationTicks": 180, "midi": 57, "name": "A3", "ticks": 1740, "time": 3.8839265000000003, "velocity": 1 }], "endOfTrackTicks": 1921 }, { "channel": 7, "controlChanges": { "7": [{ "number": 7, "ticks": 0, "time": 0, "value": 0.7874015748031497 }], "10": [{ "number": 10, "ticks": 0, "time": 0, "value": 0.5039370078740157 }], "91": [{ "number": 91, "ticks": 480, "time": 1.071428, "value": 0.5039370078740157 }] }, "pitchBends": [], "instrument": { "family": "bass", "number": 32, "name": "acoustic bass" }, "name": "bass", "notes": [{ "duration": 0.267857, "durationTicks": 120, "midi": 62, "name": "D4", "ticks": 0, "time": 0, "velocity": 1 }, { "duration": 0.267857, "durationTicks": 120, "midi": 60, "name": "C4", "ticks": 120, "time": 0.267857, "velocity": 1 }, { "duration": 0.267857, "durationTicks": 120, "midi": 59, "name": "B3", "ticks": 240, "time": 0.535714, "velocity": 1 }, { "duration": 0.267857, "durationTicks": 120, "midi": 58, "name": "A#3", "ticks": 360, "time": 0.803571, "velocity": 1 }, { "duration": 0.267857, "durationTicks": 120, "midi": 57, "name": "A3", "ticks": 480, "time": 1.071428, "velocity": 1 }, { "duration": 0.267857, "durationTicks": 120, "midi": 57, "name": "A3", "ticks": 600, "time": 1.339285, "velocity": 1 }, { "duration": 0.267857, "durationTicks": 120, "midi": 56, "name": "G#3", "ticks": 720, "time": 1.607142, "velocity": 1 }, { "duration": 0.267857, "durationTicks": 120, "midi": 55, "name": "G3", "ticks": 840, "time": 1.874999, "velocity": 1 }, { "duration": 0.26785700000000023, "durationTicks": 120, "midi": 54, "name": "F#3", "ticks": 960, "time": 2.142856, "velocity": 1 }, { "duration": 0.2678569999999998, "durationTicks": 120, "midi": 53, "name": "F3", "ticks": 1080, "time": 2.4107130000000003, "velocity": 1 }, { "duration": 0.2678569999999998, "durationTicks": 120, "midi": 52, "name": "E3", "ticks": 1200, "time": 2.67857, "velocity": 1 }, { "duration": 0.26785700000000023, "durationTicks": 120, "midi": 51, "name": "D#3", "ticks": 1320, "time": 2.946427, "velocity": 1 }, { "duration": 0.26785700000000023, "durationTicks": 120, "midi": 50, "name": "D3", "ticks": 1440, "time": 3.214284, "velocity": 1 }, { "duration": 0.2678569999999998, "durationTicks": 120, "midi": 49, "name": "C#3", "ticks": 1560, "time": 3.4821410000000004, "velocity": 1 }, { "duration": 0.2678569999999998, "durationTicks": 120, "midi": 48, "name": "C3", "ticks": 1680, "time": 3.749998, "velocity": 1 }, { "duration": 0.26785700000000023, "durationTicks": 120, "midi": 46, "name": "A#2", "ticks": 1800, "time": 4.017855, "velocity": 1 }], "endOfTrackTicks": 1921 }, { "channel": 9, "controlChanges": { "7": [{ "number": 7, "ticks": 0, "time": 0, "value": 0.8346456692913385 }], "10": [{ "number": 10, "ticks": 0, "time": 0, "value": 0.5039370078740157 }], "91": [{ "number": 91, "ticks": 480, "time": 1.071428, "value": 0.5039370078740157 }] }, "pitchBends": [], "instrument": { "family": "drums", "number": 0, "name": "standard kit" }, "name": "drums", "notes": [{ "duration": 0.267857, "durationTicks": 120, "midi": 46, "name": "A#2", "ticks": 0, "time": 0, "velocity": 1 }, { "duration": 0.267857, "durationTicks": 120, "midi": 46, "name": "A#2", "ticks": 120, "time": 0.267857, "velocity": 1 }, { "duration": 0.267857, "durationTicks": 120, "midi": 46, "name": "A#2", "ticks": 240, "time": 0.535714, "velocity": 1 }, { "duration": 0.267857, "durationTicks": 120, "midi": 46, "name": "A#2", "ticks": 360, "time": 0.803571, "velocity": 1 }, { "duration": 0.267857, "durationTicks": 120, "midi": 46, "name": "A#2", "ticks": 480, "time": 1.071428, "velocity": 1 }, { "duration": 0.267857, "durationTicks": 120, "midi": 46, "name": "A#2", "ticks": 600, "time": 1.339285, "velocity": 1 }, { "duration": 0.267857, "durationTicks": 120, "midi": 46, "name": "A#2", "ticks": 720, "time": 1.607142, "velocity": 1 }, { "duration": 0.267857, "durationTicks": 120, "midi": 46, "name": "A#2", "ticks": 840, "time": 1.874999, "velocity": 1 }, { "duration": 0.26785700000000023, "durationTicks": 120, "midi": 46, "name": "A#2", "ticks": 960, "time": 2.142856, "velocity": 1 }, { "duration": 0.2678569999999998, "durationTicks": 120, "midi": 46, "name": "A#2", "ticks": 1080, "time": 2.4107130000000003, "velocity": 1 }, { "duration": 0.2678569999999998, "durationTicks": 120, "midi": 46, "name": "A#2", "ticks": 1200, "time": 2.67857, "velocity": 1 }, { "duration": 0.26785700000000023, "durationTicks": 120, "midi": 46, "name": "A#2", "ticks": 1320, "time": 2.946427, "velocity": 1 }, { "duration": 0.26785700000000023, "durationTicks": 120, "midi": 46, "name": "A#2", "ticks": 1440, "time": 3.214284, "velocity": 1 }, { "duration": 0.2678569999999998, "durationTicks": 120, "midi": 46, "name": "A#2", "ticks": 1560, "time": 3.4821410000000004, "velocity": 1 }, { "duration": 0.2678569999999998, "durationTicks": 120, "midi": 46, "name": "A#2", "ticks": 1680, "time": 3.749998, "velocity": 1 }, { "duration": 0.26785700000000023, "durationTicks": 120, "midi": 46, "name": "A#2", "ticks": 1800, "time": 4.017855, "velocity": 1 }], "endOfTrackTicks": 1921 }] }